<svg id="Layer_1" data-name="Layer 1" xmlns="http://www.w3.org/2000/svg" viewBox="0 0 855.8 199.12"><defs><style>.cls-1{fill:#1c75bc;}</style></defs><path class="cls-1" d="M41.59,60.88V72.81h7.27a3.26,3.26,0,0,0,2.07-.47c.35-.3.53-.56.53-.75V75.7a.88.88,0,0,0-.19-.4,2,2,0,0,0-.76-.54,3.94,3.94,0,0,0-1.65-.27H41.59v9.7a5.9,5.9,0,0,0,.42,2.5,2.83,2.83,0,0,0,.92,1.17c.34.21.51.29.51.23H36.76c0,.06.17,0,.5-.21a2.48,2.48,0,0,0,.91-1.15,6.4,6.4,0,0,0,.4-2.54V63.31a6.85,6.85,0,0,0-.4-2.62,3,3,0,0,0-.91-1.26c-.33-.24-.5-.32-.5-.23H52v4.28a3.18,3.18,0,0,0-1.17-1.8,4.15,4.15,0,0,0-2.73-.8Z"/><path class="cls-1" d="M58.62,66A13.47,13.47,0,0,1,64,60.63a16.12,16.12,0,0,1,8-1.94,15.55,15.55,0,0,1,7.07,1.66,12.88,12.88,0,0,1,5.3,5,15.2,15.2,0,0,1,2,8,16.3,16.3,0,0,1-1.91,7.94,13.56,13.56,0,0,1-5.38,5.42,16.22,16.22,0,0,1-8,1.93A15.55,15.55,0,0,1,64,86.94a12.88,12.88,0,0,1-5.3-5,15.2,15.2,0,0,1-2-8A16.3,16.3,0,0,1,58.62,66Zm22.81,1A12.09,12.09,0,0,0,77.1,62.2a11.33,11.33,0,0,0-6.19-1.74,10.11,10.11,0,0,0-5.61,1.59,10.69,10.69,0,0,0-3.84,4.52,15.55,15.55,0,0,0-1.39,6.78,15,15,0,0,0,1.57,6.91A12.09,12.09,0,0,0,66,85.09a11.34,11.34,0,0,0,6.2,1.74,10.07,10.07,0,0,0,5.6-1.59,10.78,10.78,0,0,0,3.85-4.52A15.66,15.66,0,0,0,83,73.94,15,15,0,0,0,81.43,67Z"/><path class="cls-1" d="M103.75,72.66a5.94,5.94,0,0,0,2.16-2.35,6.66,6.66,0,0,0,.74-3,7,7,0,0,0-.7-3.09,5.8,5.8,0,0,0-2.12-2.37,6.31,6.31,0,0,0-3.48-.92H96.78V84.23a6,6,0,0,0,.42,2.54,2.49,2.49,0,0,0,.92,1.13c.34.19.51.25.51.19H92c0,.06.16,0,.5-.21a2.39,2.39,0,0,0,.9-1.13,6.05,6.05,0,0,0,.4-2.52v-21a6.71,6.71,0,0,0-.4-2.63,2.57,2.57,0,0,0-.9-1.21c-.34-.21-.5-.28-.5-.19h8.31a11.85,11.85,0,0,1,5.4,1.07A7,7,0,0,1,108.73,63a7.51,7.51,0,0,1,.94,3.72,7.35,7.35,0,0,1-.8,3.29,8.22,8.22,0,0,1-2.29,2.82,8.57,8.57,0,0,1-3.46,1.66l-.67.12,7.39,9.41q1.47,1.64,2.43,2.52a15.81,15.81,0,0,0,1.41,1.18c.3.19.47.31.53.33h-4.92L97.87,73.56h2.52A6.16,6.16,0,0,0,103.75,72.66Z"/><path class="cls-1" d="M118,88.09c0,.09.16,0,.5-.19a2.59,2.59,0,0,0,.9-1.26,7.26,7.26,0,0,0,.4-2.75V63.27a6.62,6.62,0,0,0-.4-2.62,2.67,2.67,0,0,0-.9-1.24c-.34-.23-.5-.3-.5-.21h15.2v4.2c-.5-1.68-2-2.52-4.54-2.52h-5.83V72.81H130a3.41,3.41,0,0,0,1.43-.28,3.26,3.26,0,0,0,.88-.56,2.9,2.9,0,0,0,.34-.38v4.07a2.9,2.9,0,0,0-.34-.38,3,3,0,0,0-.86-.54,3.46,3.46,0,0,0-1.41-.25h-7.26V86.41h6.55a6.54,6.54,0,0,0,3.25-.77,4.71,4.71,0,0,0,2-2l-.76,4.45Z"/><path class="cls-1" d="M167.21,59.2a2,2,0,0,0-1.15.94,5.32,5.32,0,0,0-.57,2.88V89.27L144,64.2V84.31a4.33,4.33,0,0,0,.72,2.84,2.57,2.57,0,0,0,1.39.94h-5.93a2.23,2.23,0,0,0,1.2-.94,5.09,5.09,0,0,0,.61-2.88v-21a4,4,0,0,0-1-2.6,4,4,0,0,0-2.43-1.47h5.2l19.7,23V63c0-2.16-.73-3.43-2.18-3.82Z"/><path class="cls-1" d="M174.22,87.9a2.76,2.76,0,0,0,.93-1.17,6,6,0,0,0,.42-2.54V63.1a6.4,6.4,0,0,0-.4-2.54,2.53,2.53,0,0,0-.9-1.15q-.51-.3-.51-.21h6.68c0-.06-.17,0-.5.21a2.56,2.56,0,0,0-.93,1.15,6,6,0,0,0-.42,2.54V84.19a6,6,0,0,0,.42,2.54,2.56,2.56,0,0,0,.93,1.15c.33.2.5.27.5.21h-6.72C173.72,88.18,173.89,88.11,174.22,87.9Z"/><path class="cls-1" d="M213.91,59.2a2.06,2.06,0,0,0-1.15.94,5.32,5.32,0,0,0-.57,2.88V89.27L190.69,64.2V84.31a4.4,4.4,0,0,0,.71,2.84,2.61,2.61,0,0,0,1.39.94h-5.92a2.18,2.18,0,0,0,1.19-.94,5,5,0,0,0,.61-2.88v-21a4,4,0,0,0-1-2.6,4.08,4.08,0,0,0-2.44-1.47h5.21l19.7,23V63q0-3.24-2.19-3.82Z"/><path class="cls-1" d="M227.1,86.88a13.11,13.11,0,0,1-5.46-5,15.41,15.41,0,0,1-2.06-8.19,15.09,15.09,0,0,1,2-7.69,13.71,13.71,0,0,1,5.5-5.33,16.78,16.78,0,0,1,8.17-1.94,19.37,19.37,0,0,1,5.31.68,16.17,16.17,0,0,1,3.76,1.47V65.5a9.58,9.58,0,0,0-3.89-3.66,11,11,0,0,0-5.27-1.38A12.86,12.86,0,0,0,228.63,62a10.5,10.5,0,0,0-4.22,4.48,14.85,14.85,0,0,0-1.47,6.8,14.66,14.66,0,0,0,1.7,7.27,11.32,11.32,0,0,0,4.52,4.53,12.74,12.74,0,0,0,6.13,1.51,15,15,0,0,0,3.13-.35,13.43,13.43,0,0,0,3-1V78.31a4.14,4.14,0,0,0-.42-2,2.85,2.85,0,0,0-.92-1c-.34-.21-.5-.29-.5-.23h6.71c0-.06-.16,0-.5.17a2.44,2.44,0,0,0-.92.94,3.81,3.81,0,0,0-.42,2V85.7a19,19,0,0,1-4.81,2.12,18.75,18.75,0,0,1-5.15.74A16.46,16.46,0,0,1,227.1,86.88Z"/><path class="cls-1" d="M252.05,88.09c0,.09.17,0,.5-.19a2.66,2.66,0,0,0,.91-1.26,7.46,7.46,0,0,0,.4-2.75V63.27a6.81,6.81,0,0,0-.4-2.62,2.75,2.75,0,0,0-.91-1.24c-.33-.23-.5-.3-.5-.21h15.2v4.2q-.75-2.52-4.53-2.52h-5.84V72.81h7.22a3.41,3.41,0,0,0,1.43-.28,3.11,3.11,0,0,0,.88-.56,2.9,2.9,0,0,0,.34-.38v4.07a2.73,2.73,0,0,0-1.2-.92,3.41,3.41,0,0,0-1.4-.25h-7.27V86.41h6.55a6.58,6.58,0,0,0,3.26-.77,4.63,4.63,0,0,0,1.95-2l-.76,4.45Z"/><path class="cls-1" d="M301.27,59.2a2.06,2.06,0,0,0-1.15.94,5.32,5.32,0,0,0-.57,2.88V89.27L278.05,64.2V84.31a4.4,4.4,0,0,0,.71,2.84,2.61,2.61,0,0,0,1.39.94h-5.92a2.18,2.18,0,0,0,1.19-.94,5,5,0,0,0,.61-2.88v-21a4,4,0,0,0-1-2.6,4.08,4.08,0,0,0-2.44-1.47h5.21l19.7,23V63q0-3.24-2.19-3.82Z"/><path class="cls-1" d="M337.56,87.72a16,16,0,0,1-5.17.88,15,15,0,0,1-7.26-1.81,13.85,13.85,0,0,1-5.4-5.21,15.18,15.18,0,0,1-2-8,15.76,15.76,0,0,1,1.87-7.68,13.34,13.34,0,0,1,5.34-5.32A16.5,16.5,0,0,1,333,58.69a17.55,17.55,0,0,1,8.74,2.15V65.5a9.5,9.5,0,0,0-3.78-3.68,10.8,10.8,0,0,0-5.29-1.36,11.26,11.26,0,0,0-6.2,1.68,10.82,10.82,0,0,0-4,4.6,16.4,16.4,0,0,0,.19,13.63,11.2,11.2,0,0,0,10.27,6.25,12.78,12.78,0,0,0,8.82-3.1v2A13.53,13.53,0,0,1,337.56,87.72Z"/><path class="cls-1" d="M369,59.2a3.65,3.65,0,0,0-1.35.92,13.9,13.9,0,0,0-2.22,3.11L358.18,75.7v8.49a5.48,5.48,0,0,0,.59,3c.39.56.76.87,1.09.92h-6.38a1.92,1.92,0,0,0,1.09-.9,5.49,5.49,0,0,0,.59-3V75.66L348,63.19a12.6,12.6,0,0,0-2.19-3,4.52,4.52,0,0,0-1.47-1h7.06a1.22,1.22,0,0,0-1.05,1.34,2.12,2.12,0,0,0,.25.9c.17.35.43.85.8,1.5l6.09,10.71,6.09-10.55a4.6,4.6,0,0,0,.71-2.39,1.23,1.23,0,0,0-.48-1.11,2.49,2.49,0,0,0-1-.4Z"/><path class="cls-1" d="M389.68,88.09l-13.19-14.7V84.23a5.39,5.39,0,0,0,.59,2.94c.39.56.76.87,1.09.92h-6.46a2.06,2.06,0,0,0,1.13-.9,5.07,5.07,0,0,0,.63-3V63.1a5.3,5.3,0,0,0-.59-2.94,2.37,2.37,0,0,0-1.17-1h6.46a1.92,1.92,0,0,0-1.09.9,5.49,5.49,0,0,0-.59,3V73.27l10-9.91c1.59-1.6,2.39-2.69,2.39-3.28s-.19-.8-.59-.88h6.6a6.51,6.51,0,0,0-2.12.9A19.39,19.39,0,0,0,389,63.19l-9.41,9.32,10.63,11.55a21.85,21.85,0,0,0,3,3,7.86,7.86,0,0,0,1.58,1Z"/><path class="cls-1" d="M399.55,88.09c0,.09.17,0,.51-.19a2.73,2.73,0,0,0,.9-1.26,7.46,7.46,0,0,0,.4-2.75V63.27a6.81,6.81,0,0,0-.4-2.62,2.82,2.82,0,0,0-.9-1.24q-.51-.34-.51-.21h15.21v4.2q-.76-2.52-4.54-2.52h-5.84V72.81h7.23a3.36,3.36,0,0,0,1.42-.28,3.18,3.18,0,0,0,.89-.56,3.37,3.37,0,0,0,.33-.38v4.07a3.37,3.37,0,0,0-.33-.38,3.11,3.11,0,0,0-.87-.54,3.37,3.37,0,0,0-1.4-.25h-7.27V86.41h6.55a6.58,6.58,0,0,0,3.26-.77,4.63,4.63,0,0,0,1.95-2l-.75,4.45Z"/><path class="cls-1" d="M423.13,60.56a2.41,2.41,0,0,0-.9-1.15c-.33-.2-.5-.27-.5-.21h6.68q0-.09-.51.21a2.62,2.62,0,0,0-.92,1.15,6,6,0,0,0-.42,2.54V86.41h6.89a6.54,6.54,0,0,0,3.25-.77,4.63,4.63,0,0,0,1.95-2l-.75,4.45H421.73c0,.09.17,0,.5-.19a2.59,2.59,0,0,0,.9-1.26,7.26,7.26,0,0,0,.4-2.75V63.1A6.22,6.22,0,0,0,423.13,60.56Z"/><path class="cls-1" d="M447.81,60.88V72.81h7.27a3.26,3.26,0,0,0,2.07-.47c.35-.3.53-.56.53-.75V75.7a.88.88,0,0,0-.19-.4,2,2,0,0,0-.76-.54,3.94,3.94,0,0,0-1.65-.27h-7.27v9.7a5.9,5.9,0,0,0,.42,2.5,2.83,2.83,0,0,0,.92,1.17c.34.21.51.29.51.23H443c0,.06.17,0,.5-.21a2.48,2.48,0,0,0,.91-1.15,6.4,6.4,0,0,0,.4-2.54V63.31a6.85,6.85,0,0,0-.4-2.62,3,3,0,0,0-.91-1.26c-.33-.24-.5-.32-.5-.23h15.2v4.28a3.18,3.18,0,0,0-1.17-1.8,4.15,4.15,0,0,0-2.73-.8Z"/><path class="cls-1" d="M496.11,63.4c-.5-1.68-2-2.52-4.54-2.52h-5.83V72.81H493a3.41,3.41,0,0,0,1.43-.28,3.26,3.26,0,0,0,.88-.56,4,4,0,0,0,.34-.38v4.07a4,4,0,0,0-.34-.38,3,3,0,0,0-.86-.54,3.46,3.46,0,0,0-1.41-.25h-7.26V86.41h6.55a6.54,6.54,0,0,0,3.25-.77,4.71,4.71,0,0,0,2-2l-.76,4.45H480.91c0,.09.16,0,.5-.19a2.59,2.59,0,0,0,.9-1.26,7.26,7.26,0,0,0,.4-2.75v-9.4h-9.2l-6.17,9.4a5.7,5.7,0,0,0-1.09,2.78,1.27,1.27,0,0,0,.31.94,1.48,1.48,0,0,0,.65.4,2.16,2.16,0,0,0,.42.08h-7.35q1.89-.16,4.29-3.78l14.32-21.5a3.8,3.8,0,0,0,.67-2.06,1.7,1.7,0,0,0-.8-1.55h17.35Zm-21.5,9.41h8.1V60.46Z"/><path class="cls-1" d="M514.88,72.66a6,6,0,0,0,2.17-2.35,6.65,6.65,0,0,0,.73-3,7.12,7.12,0,0,0-.69-3.09A5.8,5.8,0,0,0,515,61.8a6.37,6.37,0,0,0-3.49-.92h-3.57V84.23a6,6,0,0,0,.42,2.54,2.49,2.49,0,0,0,.92,1.13c.34.19.51.25.51.19h-6.68q0,.09.51-.21a2.52,2.52,0,0,0,.9-1.13,6.22,6.22,0,0,0,.4-2.52v-21a6.9,6.9,0,0,0-.4-2.63,2.7,2.7,0,0,0-.9-1.21c-.34-.21-.51-.28-.51-.19h8.32a11.84,11.84,0,0,1,5.39,1.07A6.91,6.91,0,0,1,519.86,63a7.51,7.51,0,0,1,.94,3.72,7.34,7.34,0,0,1-.79,3.29,8.46,8.46,0,0,1-2.29,2.82,8.61,8.61,0,0,1-3.47,1.66l-.67.12L521,84.06c1,1.09,1.79,1.93,2.44,2.52a13.34,13.34,0,0,0,1.41,1.18,5.48,5.48,0,0,0,.52.33h-4.91L509,73.56h2.52A6.16,6.16,0,0,0,514.88,72.66Z"/><path class="cls-1" d="M535.42,86.88a13.11,13.11,0,0,1-5.46-5,15.41,15.41,0,0,1-2.06-8.19,15.09,15.09,0,0,1,2-7.69,13.71,13.71,0,0,1,5.5-5.33,16.78,16.78,0,0,1,8.17-1.94,19.37,19.37,0,0,1,5.31.68,16.35,16.35,0,0,1,3.76,1.47V65.5a9.58,9.58,0,0,0-3.89-3.66,11.06,11.06,0,0,0-5.27-1.38A12.86,12.86,0,0,0,537,62a10.5,10.5,0,0,0-4.22,4.48,14.85,14.85,0,0,0-1.47,6.8,14.66,14.66,0,0,0,1.7,7.27,11.32,11.32,0,0,0,4.52,4.53,12.71,12.71,0,0,0,6.13,1.51,15,15,0,0,0,3.13-.35,13.43,13.43,0,0,0,3-1V78.31a4.14,4.14,0,0,0-.42-2,2.94,2.94,0,0,0-.92-1c-.34-.21-.51-.29-.51-.23h6.73c0-.06-.17,0-.51.17a2.37,2.37,0,0,0-.92.94,3.81,3.81,0,0,0-.42,2V85.7A19,19,0,0,1,548,87.82a18.75,18.75,0,0,1-5.15.74A16.46,16.46,0,0,1,535.42,86.88Z"/><path class="cls-1" d="M560.37,88.09c0,.09.17,0,.5-.19a2.66,2.66,0,0,0,.91-1.26,7.49,7.49,0,0,0,.39-2.75V63.27a6.84,6.84,0,0,0-.39-2.62,2.75,2.75,0,0,0-.91-1.24c-.33-.23-.5-.3-.5-.21h15.2v4.2q-.75-2.52-4.53-2.52H565.2V72.81h7.22a3.41,3.41,0,0,0,1.43-.28,3.11,3.11,0,0,0,.88-.56,2.9,2.9,0,0,0,.34-.38v4.07a2.73,2.73,0,0,0-1.2-.92,3.46,3.46,0,0,0-1.41-.25H565.2V86.41h6.55a6.58,6.58,0,0,0,3.26-.77,4.63,4.63,0,0,0,2-2l-.76,4.45Z"/><path class="cls-1" d="M609.59,59.2a2.06,2.06,0,0,0-1.15.94,5.32,5.32,0,0,0-.57,2.88V89.27L586.37,64.2V84.31a4.34,4.34,0,0,0,.71,2.84,2.61,2.61,0,0,0,1.39.94h-5.93a2.17,2.17,0,0,0,1.2-.94,5,5,0,0,0,.61-2.88v-21a4,4,0,0,0-1-2.6A4,4,0,0,0,581,59.2h5.21l19.69,23V63c0-2.16-.72-3.43-2.18-3.82Z"/><path class="cls-1" d="M620.72,61.34h3.74l-6.8,8Z"/><path class="cls-1" d="M632.36,88a13.12,13.12,0,0,1-3.62-1.7V81.21a8.68,8.68,0,0,0,3.34,4.26,8.58,8.58,0,0,0,4.69,1.45,5.56,5.56,0,0,0,4.07-1.62,5.85,5.85,0,0,0,1-6.74,6.82,6.82,0,0,0-2.08-2.12,29.58,29.58,0,0,0-4-2.21,16.66,16.66,0,0,1-5.32-3.5,6.4,6.4,0,0,1-1.66-4.43,7.45,7.45,0,0,1,1.07-4,7.29,7.29,0,0,1,2.9-2.69,8.62,8.62,0,0,1,4-1,13.19,13.19,0,0,1,3.7.53,13.71,13.71,0,0,1,3.36,1.49v4.54a7.86,7.86,0,0,0-3-3.6,7.68,7.68,0,0,0-4.13-1.28,5.07,5.07,0,0,0-3.87,1.56,5.18,5.18,0,0,0-1.47,3.69,4.15,4.15,0,0,0,.89,2.67,7.53,7.53,0,0,0,2.16,1.87c.85.5,2.05,1.12,3.59,1.85a34.6,34.6,0,0,1,3.86,2.1,8.19,8.19,0,0,1,2.52,2.52,6.71,6.71,0,0,1,1,3.78,7.73,7.73,0,0,1-4.39,7.2,9.64,9.64,0,0,1-4.34,1A14.61,14.61,0,0,1,632.36,88Z"/><path class="cls-1" d="M680.24,60a2.2,2.2,0,0,0-1.43-.77h7.05a3.31,3.31,0,0,0-1.47,1,10.25,10.25,0,0,0-1.93,3.28L671.84,89.1,661,63.31a9,9,0,0,0-1.83-3.08,3.93,3.93,0,0,0-1.49-1h7a1.37,1.37,0,0,0-1.14,1.47,3.44,3.44,0,0,0,.3,1.34c.19.48.31.76.33.84l8.15,19.95,7.9-19.4a4.93,4.93,0,0,0,.42-2A2.39,2.39,0,0,0,680.24,60Z"/><path class="cls-1" d="M688.21,88.09c0,.09.17,0,.51-.19a2.66,2.66,0,0,0,.9-1.26,7.26,7.26,0,0,0,.4-2.75V63.27a6.62,6.62,0,0,0-.4-2.62,2.74,2.74,0,0,0-.9-1.24q-.51-.34-.51-.21h15.21v4.2q-.76-2.52-4.54-2.52H693V72.81h7.23a3.44,3.44,0,0,0,1.43-.28,3.26,3.26,0,0,0,.88-.56,2.51,2.51,0,0,0,.33-.38v4.07a2.51,2.51,0,0,0-.33-.38,3,3,0,0,0-.86-.54,3.46,3.46,0,0,0-1.41-.25H693V86.41h6.56a6.54,6.54,0,0,0,3.25-.77,4.63,4.63,0,0,0,1.95-2l-.75,4.45Z"/><path class="cls-1" d="M737.44,59.2a2.07,2.07,0,0,0-1.16.94,5.43,5.43,0,0,0-.56,2.88V89.27L714.21,64.2V84.31a4.33,4.33,0,0,0,.72,2.84,2.59,2.59,0,0,0,1.38.94h-5.92a2.23,2.23,0,0,0,1.2-.94,5.09,5.09,0,0,0,.61-2.88v-21a4,4,0,0,0-1-2.6,4,4,0,0,0-2.44-1.47H714l19.7,23V63c0-2.16-.73-3.43-2.18-3.82Z"/><path class="cls-1" d="M771,59.2a2.07,2.07,0,0,0-1.16.94,5.43,5.43,0,0,0-.56,2.88V89.27L747.81,64.2V84.31a4.33,4.33,0,0,0,.72,2.84,2.55,2.55,0,0,0,1.38.94H744a2.23,2.23,0,0,0,1.2-.94,5.09,5.09,0,0,0,.61-2.88v-21a4.27,4.27,0,0,0-3.41-4.07h5.21l19.7,23V63c0-2.16-.73-3.43-2.18-3.82Z"/><path class="cls-1" d="M777.59,88.09c0,.09.17,0,.5-.19a2.66,2.66,0,0,0,.91-1.26,7.46,7.46,0,0,0,.4-2.75V63.27a6.81,6.81,0,0,0-.4-2.62,2.75,2.75,0,0,0-.91-1.24c-.33-.23-.5-.3-.5-.21h15.2v4.2q-.75-2.52-4.53-2.52h-5.84V72.81h7.22a3.41,3.41,0,0,0,1.43-.28A3.11,3.11,0,0,0,792,72a2.9,2.9,0,0,0,.34-.38v4.07a2.73,2.73,0,0,0-1.2-.92,3.41,3.41,0,0,0-1.4-.25h-7.27V86.41H789a6.58,6.58,0,0,0,3.26-.77,4.63,4.63,0,0,0,1.95-2l-.76,4.45Z"/><path class="cls-1" d="M811.57,72.66a5.94,5.94,0,0,0,2.16-2.35,6.66,6.66,0,0,0,.74-3,7,7,0,0,0-.7-3.09,5.8,5.8,0,0,0-2.12-2.37,6.31,6.31,0,0,0-3.48-.92H804.6V84.23a6,6,0,0,0,.42,2.54,2.43,2.43,0,0,0,.92,1.13c.34.19.5.25.5.19h-6.67c0,.06.16,0,.5-.21a2.39,2.39,0,0,0,.9-1.13,6.05,6.05,0,0,0,.4-2.52v-21a6.71,6.71,0,0,0-.4-2.63,2.57,2.57,0,0,0-.9-1.21c-.34-.21-.5-.28-.5-.19h8.31a11.85,11.85,0,0,1,5.4,1.07A6.89,6.89,0,0,1,816.54,63a7.51,7.51,0,0,1,1,3.72,7.35,7.35,0,0,1-.8,3.29,8.22,8.22,0,0,1-2.29,2.82,8.57,8.57,0,0,1-3.46,1.66l-.67.12,7.39,9.41q1.47,1.64,2.43,2.52a15.81,15.81,0,0,0,1.41,1.18,5,5,0,0,0,.53.33h-4.92L805.69,73.56h2.52A6.16,6.16,0,0,0,811.57,72.66Z"/><path class="cls-1" d="M184.25,142.5a3.26,3.26,0,0,0-1.29,1.32l.43-3.07h14.53l.42,3.07a3.17,3.17,0,0,0-1.28-1.32,4.37,4.37,0,0,0-2.24-.52h-3.06v17a4.57,4.57,0,0,0,.3,1.87,1.9,1.9,0,0,0,.68.86c.24.14.37.18.37.12h-4.88c0,.06.13,0,.37-.12a1.74,1.74,0,0,0,.66-.84,4.78,4.78,0,0,0,.29-1.89V142h-3.06A4.34,4.34,0,0,0,184.25,142.5Z"/><path class="cls-1" d="M200.9,152.38a1.18,1.18,0,0,0-.93-.47l3.31-1.48v8.34a5.72,5.72,0,0,0,.27,2,2,2,0,0,0,.62.9c.22.16.33.2.33.14h-4.41c0,.06.11,0,.34-.14a2,2,0,0,0,.61-.9,5.68,5.68,0,0,0,.28-2v-4.63A2.72,2.72,0,0,0,200.9,152.38Zm.31-6.1a1.49,1.49,0,0,1-.38-1,1.51,1.51,0,0,1,.38-1,1.48,1.48,0,0,1,2.11,0,1.52,1.52,0,0,1,.39,1,1.5,1.5,0,0,1-.39,1,1.46,1.46,0,0,1-2.11,0Z"/><path class="cls-1" d="M207.76,141.23a1.19,1.19,0,0,0-.93-.48h-.18l3.49-1.59v19.61a5.46,5.46,0,0,0,.28,2,1.88,1.88,0,0,0,.61.9c.22.16.33.2.33.14H207c0,.06.11,0,.34-.14a2,2,0,0,0,.61-.92,5.45,5.45,0,0,0,.28-2V143A2.71,2.71,0,0,0,207.76,141.23Z"/><path class="cls-1" d="M232.66,150.68v1.23h-2.55a4.28,4.28,0,0,1,1.11,2.75,4.39,4.39,0,0,1-.59,2.22,4.19,4.19,0,0,1-1.67,1.64,5,5,0,0,1-2.52.61A9.11,9.11,0,0,1,225,159q-1.11.62-1.11,1.38a1.18,1.18,0,0,0,.16.58.83.83,0,0,0,.46.4,4,4,0,0,0,1.1.26c.45.05.92.09,1.41.11l1,0a5.79,5.79,0,0,1,3.4.92,2.47,2.47,0,0,1,1,2,3.62,3.62,0,0,1-.78,2.25,5.18,5.18,0,0,1-2.25,1.63,9.14,9.14,0,0,1-3.4.59,6.73,6.73,0,0,1-2.45-.4,3.81,3.81,0,0,1-1.6-1,2.1,2.1,0,0,1-.55-1.37,2.53,2.53,0,0,1,.85-1.83,5.44,5.44,0,0,1,2.09-1.27,2.36,2.36,0,0,1-1.6-.67,1.85,1.85,0,0,1-.08-2.65,7.82,7.82,0,0,1,1.5-1.21,3.5,3.5,0,0,1-1.68-1.54,4.4,4.4,0,0,1-.59-2.2,4.49,4.49,0,0,1,.57-2.18,4.45,4.45,0,0,1,1.69-1.7,5.08,5.08,0,0,1,2.65-.66,6.12,6.12,0,0,1,1.65.25ZM226,163.61a2.54,2.54,0,0,0-1.86.7,2.15,2.15,0,0,0-.72,1.57,1.71,1.71,0,0,0,.94,1.42,4.56,4.56,0,0,0,2.5.6,5.06,5.06,0,0,0,2.89-.71,2.08,2.08,0,0,0,1-1.74,1.47,1.47,0,0,0-1-1.38,7.92,7.92,0,0,0-3.16-.46Zm-1.35-11.26a3,3,0,0,0-.74,2.07,3.89,3.89,0,0,0,.82,2.56,2.47,2.47,0,0,0,2,1,2.39,2.39,0,0,0,1.92-.81,3.22,3.22,0,0,0,.69-2.16,3.73,3.73,0,0,0-.82-2.5,2.49,2.49,0,0,0-2-1A2.41,2.41,0,0,0,224.6,152.35Z"/><path class="cls-1" d="M242,161.68a1.73,1.73,0,0,1-.77-1.14,3.55,3.55,0,0,1-1.45,1.23,4.09,4.09,0,0,1-1.79.43,3.5,3.5,0,0,1-2.36-.81,2.64,2.64,0,0,1-.95-2.13q0-3.4,6.37-3.4v-.34a4.83,4.83,0,0,0-.49-2.48,2.36,2.36,0,0,0-2.21-1.13,2.83,2.83,0,0,0-2,.7,2.36,2.36,0,0,0-.78,1.84,4.3,4.3,0,0,1-.29-.55,1.61,1.61,0,0,1-.11-.68,2.47,2.47,0,0,1,1-1.94,4.15,4.15,0,0,1,2.73-.85,3.73,3.73,0,0,1,3.4,1.6,3.5,3.5,0,0,1,.49,1.22,10.05,10.05,0,0,1,.15,1.93v3.65a2,2,0,0,0,.54,1.47,2.05,2.05,0,0,0,1.51.52h.4l-1.81,1.38A2.94,2.94,0,0,1,242,161.68Zm-4.26-4.29a2.09,2.09,0,0,0-.4,3,1.6,1.6,0,0,0,1.23.49,2.35,2.35,0,0,0,1.1-.27,2.73,2.73,0,0,0,.89-.77,2.8,2.8,0,0,0,.49-1.75v-1.31A6.17,6.17,0,0,0,237.71,157.39Z"/><path class="cls-1" d="M251.56,162.2l-4.17-9.41a5.35,5.35,0,0,0-.81-1.36,2.66,2.66,0,0,0-.72-.63c-.2-.1-.31-.14-.31-.12h4.63a1.44,1.44,0,0,0-.28.08,1,1,0,0,0-.41.3,1,1,0,0,0-.2.66,2.62,2.62,0,0,0,.31,1.16l2.42,5.55,2.27-5.24a3.14,3.14,0,0,0,.21-1.13,1.72,1.72,0,0,0-.23-.92,1,1,0,0,0-.75-.46h4.07s-.1,0-.32.12a2.31,2.31,0,0,0-.73.66,6.62,6.62,0,0,0-.85,1.46Z"/><path class="cls-1" d="M263.77,151a3.92,3.92,0,0,1,2-.57,3.47,3.47,0,0,1,2.65,1.06,4.26,4.26,0,0,1,1,3v4.26a5.25,5.25,0,0,0,.28,2,2.07,2.07,0,0,0,.61.92c.22.16.34.21.34.15h-4.42c0,.06.12,0,.34-.14a1.88,1.88,0,0,0,.61-.9,5.46,5.46,0,0,0,.28-2v-3.5a4,4,0,0,0-.28-1.65,2.8,2.8,0,0,0-.73-1,2.55,2.55,0,0,0-1.69-.58,2.75,2.75,0,0,0-1.9.72,2.56,2.56,0,0,0-.79,2v4a5.61,5.61,0,0,0,.27,2,2.16,2.16,0,0,0,.63.92c.24.16.35.21.35.15h-4.41c0,.06.11,0,.34-.14a2,2,0,0,0,.6-.92,6,6,0,0,0,.26-2v-4.63a2.72,2.72,0,0,0-.42-1.76,1.18,1.18,0,0,0-.93-.47l3.31-1.48v2.09A5.48,5.48,0,0,1,263.77,151Z"/><path class="cls-1" d="M288.67,141a4.16,4.16,0,0,0-1.57-.32,2.46,2.46,0,0,0-2.24,1.09,5.05,5.05,0,0,0-.7,2.8v6.16h3.18v1.23h-3.18v6.86a5.71,5.71,0,0,0,.27,2,2,2,0,0,0,.61.92c.23.16.34.2.34.14h-4.44c0,.06.12,0,.35-.14a1.91,1.91,0,0,0,.63-.92,5.71,5.71,0,0,0,.27-2v-6.86h-1.71v-1.23h1.71v-4.26a9.3,9.3,0,0,1,.72-3.78,5.94,5.94,0,0,1,2-2.56,5,5,0,0,1,3-.92,6.2,6.2,0,0,1,2.09.28v2.39A4.16,4.16,0,0,0,288.67,141Z"/><path class="cls-1" d="M289.59,153.57a6.14,6.14,0,0,1,2.16-2.28,5.71,5.71,0,0,1,3.07-.86,5.85,5.85,0,0,1,2.94.75,5.53,5.53,0,0,1,2.82,4.86,6.32,6.32,0,0,1-2.94,5.3,5.73,5.73,0,0,1-3.07.86,5.85,5.85,0,0,1-2.94-.75,5.53,5.53,0,0,1-2.82-4.86A6.21,6.21,0,0,1,289.59,153.57Zm8.29.82a5.42,5.42,0,0,0-1.38-2.06,3.15,3.15,0,0,0-4.58.43,4.84,4.84,0,0,0-.9,2.94,6.92,6.92,0,0,0,.49,2.55,5.27,5.27,0,0,0,1.38,2.05,3.13,3.13,0,0,0,4.58-.43,4.84,4.84,0,0,0,.9-2.94A6.83,6.83,0,0,0,297.88,154.39Z"/><path class="cls-1" d="M307.73,151.34a3.29,3.29,0,0,1,2.13-.91,2.21,2.21,0,0,1,1,.19v2.51a2.47,2.47,0,0,0-3.92.29,5.14,5.14,0,0,0-.74,2.87v2.48a5,5,0,0,0,.4,2.36c.27.43.52.66.77.7h-4.32q.36-.06.78-.69a4.77,4.77,0,0,0,.41-2.37v-4.63a2.8,2.8,0,0,0-.41-1.76,1.22,1.22,0,0,0-.94-.47l3.31-1.48v2.79A5.86,5.86,0,0,1,307.73,151.34Z"/><path class="cls-1" d="M335.9,161.56a11.75,11.75,0,0,1-3.77.64,11,11,0,0,1-5.3-1.32,10.12,10.12,0,0,1-3.94-3.8,11.09,11.09,0,0,1-1.48-5.82,11.41,11.41,0,0,1,1.36-5.6,9.69,9.69,0,0,1,3.89-3.88,12,12,0,0,1,5.9-1.39,12.82,12.82,0,0,1,6.37,1.56v3.4a6.86,6.86,0,0,0-2.76-2.68,7.8,7.8,0,0,0-3.86-1,8.15,8.15,0,0,0-4.51,1.23,7.83,7.83,0,0,0-2.93,3.35,12,12,0,0,0,.14,9.94,8.19,8.19,0,0,0,7.49,4.57,9.3,9.3,0,0,0,6.43-2.27V160A9.69,9.69,0,0,1,335.9,161.56Z"/><path class="cls-1" d="M346.53,160.91,343,152.79a5.28,5.28,0,0,0-1-1.61,2,2,0,0,0-.75-.5h4.47a1.31,1.31,0,0,0-.55.28.91.91,0,0,0-.27.76,2.74,2.74,0,0,0,.3,1.16l2.48,5.73,2.21-5.42a3.14,3.14,0,0,0,.21-1.13,1.63,1.63,0,0,0-.23-.92,1,1,0,0,0-.75-.46h4.11a2,2,0,0,0-.87.52,4.67,4.67,0,0,0-1.06,1.72l-4.17,9.68c-.55,1.28-1,2.3-1.22,3.05s-.52,1.51-.77,2.31a7.66,7.66,0,0,1-.31,1h-3.12a6.51,6.51,0,0,0,2-2.24,29.82,29.82,0,0,0,2.49-5Z"/><path class="cls-1" d="M355.31,141.23a1.23,1.23,0,0,0-.94-.48h-.18l3.49-1.59v16.67l3.07-2.61a10.93,10.93,0,0,0,1.13-1.13,1.6,1.6,0,0,0,.46-.8.49.49,0,0,0-.15-.38.92.92,0,0,0-.31-.18.59.59,0,0,0-.21,0h4.41a3.21,3.21,0,0,0-.52.28c-.29.16-.73.46-1.32.88s-1.31,1-2.15,1.69l-2.26,1.87,3.64,3.77a13.81,13.81,0,0,0,1.92,1.7,2.39,2.39,0,0,0,1.05.47h.13a4,4,0,0,1-1.11.49,4.1,4.1,0,0,1-1.1.18,1.83,1.83,0,0,1-1.15-.44,13.7,13.7,0,0,1-1.42-1.36l-.46-.46-3.65-3.83v2.85a5.43,5.43,0,0,0,.29,2,2,2,0,0,0,.65.9c.23.16.35.2.35.14h-4.41c0,.06.1,0,.32-.14a2,2,0,0,0,.58-.92,6,6,0,0,0,.26-2V143A2.78,2.78,0,0,0,355.31,141.23Z"/><path class="cls-1" d="M370.18,161.39a5.26,5.26,0,0,1-1.82-2.12,6.25,6.25,0,0,1-.63-2.77,6.76,6.76,0,0,1,.75-3.28,5.24,5.24,0,0,1,1.95-2.08,4.8,4.8,0,0,1,2.48-.71,4.34,4.34,0,0,1,3.17,1.34,5.39,5.39,0,0,1,1.45,3.69h-8a5.77,5.77,0,0,0,.55,2.59,4.1,4.1,0,0,0,1.49,1.71,3.68,3.68,0,0,0,2,.6c1.92,0,3.22-.61,3.89-1.84a4.21,4.21,0,0,1-1.5,2.67,4.57,4.57,0,0,1-3,1A5,5,0,0,1,370.18,161.39Zm.46-9.1a3.65,3.65,0,0,0-1,2.19h5.57a3.14,3.14,0,0,0-.75-2.22,2.29,2.29,0,0,0-1.73-.81A2.83,2.83,0,0,0,370.64,152.29Z"/><path class="cls-1" d="M380.8,141.23a1.23,1.23,0,0,0-.94-.48h-.18l3.49-1.59v19.61a5.46,5.46,0,0,0,.28,2,1.88,1.88,0,0,0,.61.9c.22.16.34.2.34.14H380c0,.06.12,0,.34-.14a1.9,1.9,0,0,0,.61-.92,5.45,5.45,0,0,0,.28-2V143A2.78,2.78,0,0,0,380.8,141.23Z"/><path class="cls-1" d="M394.55,141a4.17,4.17,0,0,0-1.58-.32,2.45,2.45,0,0,0-2.23,1.09,5.05,5.05,0,0,0-.71,2.8v6.16h3.19v1.23H390v6.86a5.67,5.67,0,0,0,.28,2,2,2,0,0,0,.61.92c.23.16.34.2.34.14h-4.44c0,.06.11,0,.35-.14a2,2,0,0,0,.63-.92,5.71,5.71,0,0,0,.27-2v-6.86h-1.71v-1.23h1.71v-4.26a9.3,9.3,0,0,1,.72-3.78,6,6,0,0,1,2-2.56,5.09,5.09,0,0,1,3-.92,6.13,6.13,0,0,1,2.08.28v2.39A4,4,0,0,0,394.55,141Z"/><path class="cls-1" d="M404.62,159.3a3.75,3.75,0,0,0,2.66,1.09,3.93,3.93,0,0,0,1.84-.47,4.25,4.25,0,0,0,1.5-1.4,4.4,4.4,0,0,1-1.47,2.74,3.94,3.94,0,0,1-2.6.94,5.13,5.13,0,0,1-2.56-.71,4.68,4.68,0,0,1-1.89-1.93,3.52,3.52,0,0,1-1.31,1.9,3.93,3.93,0,0,1-2.42.74,3.65,3.65,0,0,1-2.52-.83,2.67,2.67,0,0,1-.91-2.08,2.75,2.75,0,0,1,.61-1.78,4.32,4.32,0,0,1,2.3-1.22c1-.25,2.14-.48,3.49-.71q0-3.65-2.61-3.64a2.86,2.86,0,0,0-2.16.75,2.48,2.48,0,0,0-.72,1.79,1.77,1.77,0,0,1-.23-.51,2.25,2.25,0,0,1-.1-.66,2.55,2.55,0,0,1,1-2.08,4,4,0,0,1,2.59-.8,4.24,4.24,0,0,1,2.32.6,3.24,3.24,0,0,1,1.3,1.55,3.72,3.72,0,0,1,1.5-1.61,4.16,4.16,0,0,1,5,.7,5.28,5.28,0,0,1,1.36,3.57c-2.61.33-5.07.67-7.35,1A4.66,4.66,0,0,0,404.62,159.3Zm-6.13-2.16A2,2,0,0,0,397,159.2a1.63,1.63,0,0,0,.47,1.22,1.74,1.74,0,0,0,1.27.46,2.33,2.33,0,0,0,1.63-.55,2.6,2.6,0,0,0,.72-1,5,5,0,0,0,.23-1.69v-1.07A21.31,21.31,0,0,0,398.49,157.14Zm9.77-2.57a3.7,3.7,0,0,0-.67-2.3,2,2,0,0,0-1.66-.79,2.36,2.36,0,0,0-1.9,1,4.51,4.51,0,0,0-.82,2.78Z"/><path class="cls-1" d="M417.77,151.34a3.33,3.33,0,0,1,2.13-.91,2.18,2.18,0,0,1,1,.19v2.51a2.47,2.47,0,0,0-3.92.29,5.14,5.14,0,0,0-.73,2.87v2.48a4.83,4.83,0,0,0,.4,2.36c.26.43.52.66.76.7H413.1q.38-.06.78-.69a4.64,4.64,0,0,0,.42-2.37v-4.63a2.72,2.72,0,0,0-.42-1.76,1.18,1.18,0,0,0-.93-.47l3.31-1.48v2.79A5.69,5.69,0,0,1,417.77,151.34Z"/><path class="cls-1" d="M433.87,150.68v1.23h-2.54a4.26,4.26,0,0,1,1.1,2.75,4.38,4.38,0,0,1-.58,2.22,4.25,4.25,0,0,1-1.67,1.64,5,5,0,0,1-2.53.61,9.11,9.11,0,0,1-1.47-.12c-.73.41-1.1.87-1.1,1.38a1.17,1.17,0,0,0,.15.58.9.9,0,0,0,.46.4,4.12,4.12,0,0,0,1.11.26c.45.05.92.09,1.41.11l1,0a5.81,5.81,0,0,1,3.4.92,2.5,2.5,0,0,1,1,2,3.62,3.62,0,0,1-.78,2.25,5.18,5.18,0,0,1-2.25,1.63,9.17,9.17,0,0,1-3.4.59,6.82,6.82,0,0,1-2.46-.4,3.83,3.83,0,0,1-1.59-1,2.05,2.05,0,0,1-.55-1.37,2.55,2.55,0,0,1,.84-1.83,5.41,5.41,0,0,1,2.1-1.27,2.4,2.4,0,0,1-1.61-.67,1.86,1.86,0,0,1-.07-2.65,7.24,7.24,0,0,1,1.5-1.21,3.52,3.52,0,0,1-1.69-1.54,4.39,4.39,0,0,1-.58-2.2,4.49,4.49,0,0,1,.57-2.18,4.42,4.42,0,0,1,1.68-1.7,5.13,5.13,0,0,1,2.65-.66,6.25,6.25,0,0,1,1.66.25Zm-6.71,12.93a2.54,2.54,0,0,0-1.85.7,2.15,2.15,0,0,0-.72,1.57,1.69,1.69,0,0,0,.94,1.42,4.54,4.54,0,0,0,2.49.6,5.09,5.09,0,0,0,2.9-.71,2.07,2.07,0,0,0,1-1.74,1.45,1.45,0,0,0-1-1.38,7.83,7.83,0,0,0-3.15-.46Zm-1.34-11.26a3,3,0,0,0-.74,2.07,3.94,3.94,0,0,0,.81,2.56,2.47,2.47,0,0,0,2,1,2.37,2.37,0,0,0,1.91-.81,3.22,3.22,0,0,0,.69-2.16,3.78,3.78,0,0,0-.81-2.5,2.5,2.5,0,0,0-2-1A2.4,2.4,0,0,0,425.82,152.35Z"/><path class="cls-1" d="M438.07,161.39a5.26,5.26,0,0,1-1.82-2.12,6.25,6.25,0,0,1-.63-2.77,6.76,6.76,0,0,1,.75-3.28,5.24,5.24,0,0,1,1.95-2.08,4.8,4.8,0,0,1,2.48-.71,4.34,4.34,0,0,1,3.17,1.34,5.39,5.39,0,0,1,1.45,3.69h-8a5.77,5.77,0,0,0,.55,2.59,4.15,4.15,0,0,0,1.48,1.71,3.74,3.74,0,0,0,2,.6c1.92,0,3.22-.61,3.89-1.84a4.21,4.21,0,0,1-1.5,2.67,4.59,4.59,0,0,1-3,1A5,5,0,0,1,438.07,161.39Zm.46-9.1a3.65,3.65,0,0,0-1,2.19h5.57a3.14,3.14,0,0,0-.75-2.22,2.29,2.29,0,0,0-1.73-.81A2.83,2.83,0,0,0,438.53,152.29Z"/><path class="cls-1" d="M452.73,151a3.93,3.93,0,0,1,2-.57,3.5,3.5,0,0,1,2.65,1.06,4.31,4.31,0,0,1,1,3v4.26a5.25,5.25,0,0,0,.28,2,2.15,2.15,0,0,0,.61.92c.23.16.34.21.34.15h-4.41c0,.06.11,0,.33-.14a2,2,0,0,0,.62-.9,5.72,5.72,0,0,0,.27-2v-3.5a4.17,4.17,0,0,0-.27-1.65,2.94,2.94,0,0,0-.74-1,2.54,2.54,0,0,0-1.68-.58,2.73,2.73,0,0,0-1.9.72,2.57,2.57,0,0,0-.8,2v4a5.35,5.35,0,0,0,.28,2,2.07,2.07,0,0,0,.62.92q.36.24.36.15H447.9c0,.06.12,0,.34-.14a1.83,1.83,0,0,0,.6-.92,6,6,0,0,0,.26-2v-4.63a2.8,2.8,0,0,0-.41-1.76,1.22,1.22,0,0,0-.94-.47l3.31-1.48v2.09A5.6,5.6,0,0,1,452.73,151Z"/><path class="cls-1" d="M473.39,167.9a2,2,0,0,0,.62.9c.22.15.33.2.33.14h-4.41c0,.06.11,0,.34-.14a2,2,0,0,0,.61-.92,5.49,5.49,0,0,0,.28-2V154.14a2.72,2.72,0,0,0-.42-1.76,1.18,1.18,0,0,0-.93-.47l3.31-1.48v2a4.71,4.71,0,0,1,1.33-1.31,4.26,4.26,0,0,1,2.53-.69,4.46,4.46,0,0,1,2.42.68,4.69,4.69,0,0,1,1.68,1.87,5.7,5.7,0,0,1,.62,2.66,6.94,6.94,0,0,1-.77,3.31,6.48,6.48,0,0,1-2,2.3,5.21,5.21,0,0,1-3,.95,4.77,4.77,0,0,1-1.78-.29,5.07,5.07,0,0,1-1-.54v4.51A5.76,5.76,0,0,0,473.39,167.9Zm5.2-14.69a2.93,2.93,0,0,0-2.62-1.43,2.9,2.9,0,0,0-1.32.35,3,3,0,0,0-1.1,1,2.33,2.33,0,0,0-.43,1.38v3.61a4.48,4.48,0,0,0,.23,1.6,1.76,1.76,0,0,0,.72.92,3.45,3.45,0,0,0,1.87.49,3.17,3.17,0,0,0,2.54-1.24,5.1,5.1,0,0,0,1-3.3A6.12,6.12,0,0,0,478.59,153.21Z"/><path class="cls-1" d="M491.71,161.68a1.71,1.71,0,0,1-.76-1.14,3.64,3.64,0,0,1-1.46,1.23,4.09,4.09,0,0,1-1.79.43,3.5,3.5,0,0,1-2.36-.81,2.67,2.67,0,0,1-.95-2.13c0-2.27,2.13-3.4,6.37-3.4v-.34a4.83,4.83,0,0,0-.49-2.48,2.35,2.35,0,0,0-2.2-1.13,2.84,2.84,0,0,0-2,.7,2.36,2.36,0,0,0-.78,1.84,6.13,6.13,0,0,1-.29-.55,1.78,1.78,0,0,1-.11-.68,2.47,2.47,0,0,1,1-1.94,4.18,4.18,0,0,1,2.73-.85,3.72,3.72,0,0,1,3.4,1.6,3.15,3.15,0,0,1,.49,1.22,10.05,10.05,0,0,1,.15,1.93v3.65a2,2,0,0,0,.54,1.47,2.08,2.08,0,0,0,1.52.52h.4l-1.81,1.38A3,3,0,0,1,491.71,161.68Zm-4.25-4.29a1.91,1.91,0,0,0-.86,1.65,1.87,1.87,0,0,0,.46,1.35,1.57,1.57,0,0,0,1.22.49,2.33,2.33,0,0,0,1.1-.27,2.63,2.63,0,0,0,.89-.77,2.8,2.8,0,0,0,.49-1.75v-1.31A6.13,6.13,0,0,0,487.46,157.39Zm-.14-13.24a2.08,2.08,0,0,1,1.48-.61,2.13,2.13,0,0,1,0,4.26,2,2,0,0,1-1.48-.63,2.05,2.05,0,0,1-.63-1.51A2,2,0,0,1,487.32,144.15Zm2.39.65a1.26,1.26,0,0,0-.91-.37,1.24,1.24,0,0,0-.9.37,1.13,1.13,0,0,0-.38.86,1.19,1.19,0,0,0,.38.87,1.25,1.25,0,0,0,.9.38,1.27,1.27,0,0,0,.91-.38,1.23,1.23,0,0,0,.38-.87A1.16,1.16,0,0,0,489.71,144.8Z"/><path class="cls-1" d="M509.14,142v8.7h5.31a2.35,2.35,0,0,0,1.51-.34c.26-.22.38-.41.38-.55v3a.65.65,0,0,0-.13-.29,1.65,1.65,0,0,0-.55-.4,3,3,0,0,0-1.21-.19h-5.31V159a4.29,4.29,0,0,0,.31,1.82,2,2,0,0,0,.68.86c.24.16.36.21.36.17h-4.87s.12,0,.37-.15a1.92,1.92,0,0,0,.66-.84,4.69,4.69,0,0,0,.29-1.86V143.76a5,5,0,0,0-.29-1.92,2.32,2.32,0,0,0-.66-.92c-.25-.17-.37-.23-.37-.17h11.09v3.13a2.33,2.33,0,0,0-.86-1.32,3,3,0,0,0-2-.58Z"/><path class="cls-1" d="M520.25,141.23a1.22,1.22,0,0,0-.93-.48h-.19l3.5-1.59v19.61a5.72,5.72,0,0,0,.27,2,2,2,0,0,0,.61.9c.23.16.34.2.34.14h-4.41c0,.06.11,0,.34-.14a2.05,2.05,0,0,0,.61-.92,5.71,5.71,0,0,0,.27-2V143A2.71,2.71,0,0,0,520.25,141.23Z"/><path class="cls-1" d="M528.75,161.39a5.34,5.34,0,0,1-1.82-2.12,6.25,6.25,0,0,1-.63-2.77,6.76,6.76,0,0,1,.75-3.28,5.24,5.24,0,0,1,2-2.08,4.8,4.8,0,0,1,2.48-.71,4.32,4.32,0,0,1,3.17,1.34,5.45,5.45,0,0,1,1.46,3.69h-8a5.77,5.77,0,0,0,.55,2.59,4.1,4.1,0,0,0,1.49,1.71,3.68,3.68,0,0,0,2,.6c1.92,0,3.22-.61,3.9-1.84a4.27,4.27,0,0,1-1.51,2.67,4.55,4.55,0,0,1-3,1A5,5,0,0,1,528.75,161.39Zm.46-9.1a3.65,3.65,0,0,0-1,2.19h5.58a3.14,3.14,0,0,0-.75-2.22,2.31,2.31,0,0,0-1.74-.81A2.83,2.83,0,0,0,529.21,152.29Z"/><path class="cls-1" d="M543.41,151a3.93,3.93,0,0,1,2-.57,3.5,3.5,0,0,1,2.65,1.06,4.31,4.31,0,0,1,1,3v4.26a5.46,5.46,0,0,0,.28,2,2.15,2.15,0,0,0,.61.92c.23.16.34.21.34.15h-4.41c0,.06.11,0,.34-.14a2,2,0,0,0,.61-.9,5.72,5.72,0,0,0,.27-2v-3.5a4.17,4.17,0,0,0-.27-1.65,2.94,2.94,0,0,0-.74-1,2.54,2.54,0,0,0-1.68-.58,2.73,2.73,0,0,0-1.9.72,2.57,2.57,0,0,0-.8,2v4a5.35,5.35,0,0,0,.28,2,2,2,0,0,0,.63.92c.23.16.35.21.35.15h-4.41c0,.06.11,0,.33-.14a1.83,1.83,0,0,0,.6-.92,6,6,0,0,0,.26-2v-4.63a2.8,2.8,0,0,0-.41-1.76,1.22,1.22,0,0,0-.94-.47l3.31-1.48v2.09A5.6,5.6,0,0,1,543.41,151Z"/><path class="cls-1" d="M554.88,161.89a5.32,5.32,0,0,1-1.62-.79v-2.7a4.19,4.19,0,0,0,1.58,2.07,4,4,0,0,0,2.16.63,2.28,2.28,0,0,0,1.54-.52,1.51,1.51,0,0,0,.6-1.14,1.35,1.35,0,0,0-.61-1.13,10.14,10.14,0,0,0-1.87-1,12,12,0,0,1-2.51-1.51,2.45,2.45,0,0,1-.89-2,3.11,3.11,0,0,1,1-2.35,3.82,3.82,0,0,1,2.73-1,6.75,6.75,0,0,1,2,.28,4.32,4.32,0,0,1,1.29.61l-.49,2.3a2.93,2.93,0,0,0-1.23-1.56,3.39,3.39,0,0,0-1.81-.52,1.93,1.93,0,0,0-1.36.49,1.43,1.43,0,0,0-.53,1.1,1.56,1.56,0,0,0,.65,1.32,11,11,0,0,0,2,1.07,10.43,10.43,0,0,1,2.44,1.36,2.38,2.38,0,0,1,.84,2,3.06,3.06,0,0,1-.49,1.65,3.5,3.5,0,0,1-1.43,1.24,4.65,4.65,0,0,1-2.16.48A6.23,6.23,0,0,1,554.88,161.89Z"/><path class="cls-1" d="M564.12,141.23a1.21,1.21,0,0,0-.93-.48H563l3.5-1.59v13.27a4.58,4.58,0,0,1,1.33-1.31,4.23,4.23,0,0,1,2.53-.69,4.48,4.48,0,0,1,2.42.68,4.69,4.69,0,0,1,1.68,1.87,5.69,5.69,0,0,1,.61,2.66,6.94,6.94,0,0,1-.76,3.31,6.48,6.48,0,0,1-2,2.3,5.41,5.41,0,0,1-3.13.95,7.33,7.33,0,0,1-2.6-.52,2.94,2.94,0,0,0-1-.25,1.5,1.5,0,0,0-1.07.62V143A2.71,2.71,0,0,0,564.12,141.23Zm2.59,18.46a1.66,1.66,0,0,0,.74.92,3.62,3.62,0,0,0,2,.49,3,3,0,0,0,2.46-1.24,5.09,5.09,0,0,0,1-3.3,6,6,0,0,0-.91-3.35,3,3,0,0,0-3.93-1.08,3.15,3.15,0,0,0-1.11,1,2.39,2.39,0,0,0-.42,1.38v3.61A5,5,0,0,0,566.71,159.69Z"/><path class="cls-1" d="M578.31,153.57a6.14,6.14,0,0,1,2.16-2.28,5.67,5.67,0,0,1,3.06-.86,5.85,5.85,0,0,1,2.94.75,5.53,5.53,0,0,1,2.82,4.86,6.21,6.21,0,0,1-.78,3,6.06,6.06,0,0,1-2.16,2.28,5.71,5.71,0,0,1-3.07.86,5.85,5.85,0,0,1-2.94-.75,5.53,5.53,0,0,1-2.82-4.86A6.22,6.22,0,0,1,578.31,153.57Zm8.28.82a5.2,5.2,0,0,0-1.38-2.06,3.15,3.15,0,0,0-4.58.43,4.84,4.84,0,0,0-.9,2.94,6.92,6.92,0,0,0,.49,2.55,5.38,5.38,0,0,0,1.38,2.05,3,3,0,0,0,2,.8,3,3,0,0,0,2.53-1.23,4.84,4.84,0,0,0,.9-2.94A6.83,6.83,0,0,0,586.59,154.39Z"/><path class="cls-1" d="M596.44,151.34a3.33,3.33,0,0,1,2.13-.91,2.18,2.18,0,0,1,1,.19v2.51a2.47,2.47,0,0,0-3.92.29,5.14,5.14,0,0,0-.73,2.87v2.48a5,5,0,0,0,.39,2.36c.27.43.52.66.77.7h-4.32c.24,0,.51-.27.78-.69a4.66,4.66,0,0,0,.41-2.37v-4.63a2.73,2.73,0,0,0-.41-1.76,1.2,1.2,0,0,0-.93-.47l3.31-1.48v2.79A5.69,5.69,0,0,1,596.44,151.34Z"/><path class="cls-1" d="M612.54,150.68v1.23H610a4.32,4.32,0,0,1,1.1,2.75,4.38,4.38,0,0,1-.58,2.22,4.32,4.32,0,0,1-1.67,1.64,5.07,5.07,0,0,1-2.53.61,9.11,9.11,0,0,1-1.47-.12c-.73.41-1.1.87-1.1,1.38a1.17,1.17,0,0,0,.15.58.86.86,0,0,0,.46.4,4,4,0,0,0,1.1.26c.45.05.92.09,1.41.11l1,0a5.81,5.81,0,0,1,3.4.92,2.5,2.5,0,0,1,1,2,3.62,3.62,0,0,1-.78,2.25,5.27,5.27,0,0,1-2.26,1.63,9.14,9.14,0,0,1-3.4.59,6.77,6.77,0,0,1-2.45-.4,3.83,3.83,0,0,1-1.59-1,2.05,2.05,0,0,1-.55-1.37,2.55,2.55,0,0,1,.84-1.83,5.41,5.41,0,0,1,2.1-1.27,2.38,2.38,0,0,1-1.61-.67,1.87,1.87,0,0,1-.6-1.32,1.92,1.92,0,0,1,.52-1.33,7.82,7.82,0,0,1,1.5-1.21,3.54,3.54,0,0,1-1.68-1.54,4.39,4.39,0,0,1-.58-2.2,4.59,4.59,0,0,1,.56-2.18,4.45,4.45,0,0,1,1.69-1.7,5.13,5.13,0,0,1,2.65-.66,6.12,6.12,0,0,1,1.65.25Zm-6.71,12.93a2.54,2.54,0,0,0-1.85.7,2.15,2.15,0,0,0-.72,1.57,1.7,1.7,0,0,0,.93,1.42,4.6,4.6,0,0,0,2.5.6,5.09,5.09,0,0,0,2.9-.71,2.07,2.07,0,0,0,1-1.74,1.47,1.47,0,0,0-1-1.38,7.87,7.87,0,0,0-3.15-.46Zm-1.35-11.26a3,3,0,0,0-.73,2.07,3.94,3.94,0,0,0,.81,2.56,2.47,2.47,0,0,0,2,1,2.38,2.38,0,0,0,1.91-.81,3.22,3.22,0,0,0,.69-2.16,3.78,3.78,0,0,0-.81-2.5,2.5,2.5,0,0,0-2-1A2.42,2.42,0,0,0,604.48,152.35Z"/><path class="cls-1" d="M629.84,141a4.25,4.25,0,0,0-1.58-.32,2.47,2.47,0,0,0-2.24,1.09,5.05,5.05,0,0,0-.7,2.8v6.16h3.18v1.23h-3.18v6.86a5.71,5.71,0,0,0,.27,2,2.05,2.05,0,0,0,.61.92c.23.16.34.2.34.14H622.1c0,.06.12,0,.35-.14a1.85,1.85,0,0,0,.63-.92,5.67,5.67,0,0,0,.28-2v-6.86h-1.72v-1.23h1.72v-4.26a9.14,9.14,0,0,1,.72-3.78,5.85,5.85,0,0,1,2-2.56,5,5,0,0,1,3-.92,6.2,6.2,0,0,1,2.09.28v2.39A4.12,4.12,0,0,0,629.84,141Z"/><path class="cls-1" d="M630.78,152.38a1.18,1.18,0,0,0-.93-.47l3.31-1.48v14.28a5.29,5.29,0,0,1-.87,3.22,2.76,2.76,0,0,1-2.29,1.16,4.53,4.53,0,0,1-1.87-.46,3.83,3.83,0,0,0,2.24-.83,2.21,2.21,0,0,0,.64-1.14,7.63,7.63,0,0,0,.19-1.92v-10.6A2.72,2.72,0,0,0,630.78,152.38Zm.31-6.1a1.54,1.54,0,0,1-.38-1,1.56,1.56,0,0,1,.38-1,1.5,1.5,0,0,1,2.12,0,1.56,1.56,0,0,1,.38,1,1.54,1.54,0,0,1-.38,1,1.47,1.47,0,0,1-2.12,0Z"/><path class="cls-1" d="M637.62,153.57a6.14,6.14,0,0,1,2.16-2.28,5.7,5.7,0,0,1,3.06-.86,5.85,5.85,0,0,1,2.94.75A5.53,5.53,0,0,1,648.6,156a6.21,6.21,0,0,1-.78,3,6.06,6.06,0,0,1-2.16,2.28,5.7,5.7,0,0,1-3.06.86,5.86,5.86,0,0,1-3-.75,5.55,5.55,0,0,1-2.81-4.86A6.21,6.21,0,0,1,637.62,153.57Zm8.28.82a5.29,5.29,0,0,0-1.37-2.06,3,3,0,0,0-2.06-.79,3,3,0,0,0-2.52,1.22,4.78,4.78,0,0,0-.91,2.94,7.13,7.13,0,0,0,.49,2.55,5.38,5.38,0,0,0,1.38,2.05,3,3,0,0,0,2.05.8,3,3,0,0,0,2.53-1.23,4.84,4.84,0,0,0,.9-2.94A6.83,6.83,0,0,0,645.9,154.39Z"/><path class="cls-1" d="M655.75,151.34a3.33,3.33,0,0,1,2.13-.91,2.18,2.18,0,0,1,1,.19v2.51a2.47,2.47,0,0,0-3.92.29,5.14,5.14,0,0,0-.73,2.87v2.48a5,5,0,0,0,.39,2.36c.27.43.53.66.77.7h-4.32q.38-.06.78-.69a4.64,4.64,0,0,0,.42-2.37v-4.63a2.72,2.72,0,0,0-.42-1.76,1.18,1.18,0,0,0-.93-.47l3.31-1.48v2.79A5.69,5.69,0,0,1,655.75,151.34Z"/><path class="cls-1" d="M669.43,143a2.78,2.78,0,0,0-.41-1.76,1.22,1.22,0,0,0-.93-.48h-.19l3.49-1.59v19.21a2.72,2.72,0,0,0,.42,1.76,1.19,1.19,0,0,0,.93.48h.18l-3.49,1.59v-2a4.7,4.7,0,0,1-1.33,1.3,4.26,4.26,0,0,1-2.53.69,4.46,4.46,0,0,1-2.42-.68,4.66,4.66,0,0,1-1.68-1.86,5.77,5.77,0,0,1-.62-2.67,7,7,0,0,1,.77-3.31,6.47,6.47,0,0,1,2-2.3,5.21,5.21,0,0,1,3-.95,4.56,4.56,0,0,1,1.78.3,5.13,5.13,0,0,1,1,.53ZM664,159.43a3,3,0,0,0,3.94,1.07,3,3,0,0,0,1.1-1,2.29,2.29,0,0,0,.43-1.38v-3.61a4.46,4.46,0,0,0-.23-1.59,1.73,1.73,0,0,0-.72-.92,3.36,3.36,0,0,0-1.87-.49,3.14,3.14,0,0,0-2.54,1.24,5.07,5.07,0,0,0-1,3.29A6.16,6.16,0,0,0,664,159.43Z"/><rect class="cls-1" x="119.69" y="118.18" width="616.42" height="3"/></svg>