<svg xmlns="http://www.w3.org/2000/svg" width="253.14" height="176.243" viewBox="0 0 253.14 176.243">
  <path id="Union_7" data-name="Union 7" d="M39.723,136.717c-21.933-2.037-37.27-18.737-34.256-37.3,1.964-12.095,11.233-22,23.52-26.867q.205-.282.415-.563c-1.19-9.772,4.388-20.747,16.03-28.956,12.563-8.858,28.884-12.166,42.319-9.6,17.514-12.718,44.976-19.614,74.437-16.879,44.273,4.111,72.279,38.3,71.277,66.578,7.344,23.6-17.449,14.808-52.022,6.019-19.847-5.045-42.917-10.089-64.981-9.007-45.213,2.217-55.48,45.993-68.783,53.952.186,1.777-1.12,2.784-4.957,2.784C41.854,136.874,40.859,136.823,39.723,136.717Z" transform="matrix(0.966, -0.259, 0.259, 0.966, -9.044, 45.349)" fill="#b7b7b7"/>
</svg>
