<svg xmlns="http://www.w3.org/2000/svg" width="354.479" height="220.672" viewBox="0 0 354.479 220.672">
  <g id="Group_135" data-name="Group 135" transform="translate(13468.5 -1041.022)">
    <path id="Union_14" data-name="Union 14" d="M39.444,136.816C14.464,134.509-3,115.588.43,94.556c2.237-13.7,12.793-24.921,26.786-30.438q.234-.32.472-.638c-1.356-11.071,5-23.5,18.256-32.806C60.252,20.638,78.839,16.891,94.138,19.8,114.084,5.386,145.359-2.426,178.911.673c50.35,4.651,82.225,43.29,81.176,75.3,3.545,10.295,2.375,13.318-2.623,12.389-3.664,6.1-10.7.143-21.163-9.212-3.505-1.687-7.321-3.481-11.419-5.275-23.036-10.088-54.99-20.174-90.755-11.123C75.341,77.623,63.041,126.027,48.5,134.568c-.211,1.557-1.828,2.425-5.637,2.425C41.872,136.994,40.74,136.935,39.444,136.816Z" transform="matrix(0.966, -0.259, 0.259, 0.966, -13402.682, 1108.868)" fill="#b7b7b7" opacity="0.885"/>
    <line id="Line_24" data-name="Line 24" x2="178" transform="translate(-13445.5 1187.194)" fill="none" stroke="#fff" stroke-width="5"/>
    <line id="Line_25" data-name="Line 25" x2="57" transform="translate(-13445.5 1205.194)" fill="none" stroke="#fff" stroke-width="5"/>
    <line id="Line_26" data-name="Line 26" x2="103" transform="translate(-13370.5 1205.194)" fill="none" stroke="#fff" stroke-width="5"/>
    <line id="Line_27" data-name="Line 27" x2="103" transform="translate(-13468.5 1223.194)" fill="none" stroke="#fff" stroke-width="5"/>
    <line id="Line_28" data-name="Line 28" x2="57" transform="translate(-13347.5 1223.194)" fill="none" stroke="#fff" stroke-width="5"/>
    <line id="Line_29" data-name="Line 29" x2="178" transform="translate(-13427.5 1241.194)" fill="none" stroke="#fff" stroke-width="5"/>
    <line id="Line_30" data-name="Line 30" x2="138" transform="translate(-13468.5 1259.194)" fill="none" stroke="#fff" stroke-width="5"/>
    <line id="Line_31" data-name="Line 31" x2="57" transform="translate(-13318.5 1259.194)" fill="none" stroke="#fff" stroke-width="5"/>
  </g>
</svg>
