<svg xmlns="http://www.w3.org/2000/svg" width="225.159" height="191.522" viewBox="0 0 225.159 191.522">
  <path id="Subtraction_4" data-name="Subtraction 4" d="M41.057,191.522A48.312,48.312,0,0,1,25.9,189.146,41.258,41.258,0,0,1,13.3,182.48a35.152,35.152,0,0,1-8.937-10.266A33.151,33.151,0,0,1,.176,159.041a38.008,38.008,0,0,1,5.894-23.912c-4.015-13.29-2.663-29.753,3.806-46.357A107.734,107.734,0,0,1,41.313,45.32,83.661,83.661,0,0,1,63,32.18a56.145,56.145,0,0,1,20.947-4.354,42.834,42.834,0,0,1,6.673.513A120.124,120.124,0,0,1,117.4,11.474a131.9,131.9,0,0,1,32.274-10.1A88.37,88.37,0,0,1,165.088,0a86.277,86.277,0,0,1,32.949,6.55,91.676,91.676,0,0,1,14.423,7.5,95,95,0,0,1,12.7,9.711,73.923,73.923,0,0,0-26.577,26.393A73.161,73.161,0,0,0,188.46,87.4a74.589,74.589,0,0,0,.474,8.389c-19.654.476-45.166,1.969-68.2,9.365a76.046,76.046,0,0,0-12.082,5.032,67.307,67.307,0,0,0-9.958,6.4,66.491,66.491,0,0,0-8.1,7.454,72.841,72.841,0,0,0-6.509,8.207,97.471,97.471,0,0,0-9.31,17.457c-2.457,5.847-4.415,11.674-6.143,16.815-3.592,10.689-6.43,19.132-11.56,22.1-1.337.859-3.6,1.553-6.928,2.121A54.09,54.09,0,0,1,41.057,191.522Z" transform="translate(0 0)" fill="#b7b7b7"/>
</svg>
