<svg xmlns="http://www.w3.org/2000/svg" width="288.66" height="276.745" viewBox="0 0 288.66 276.745">
  <g id="Group_133" data-name="Group 133" transform="translate(13402.682 -951.946)">
    <path id="Subtraction_3" data-name="Subtraction 3" d="M94.278,230a94.536,94.536,0,0,1-19-1.925,93.52,93.52,0,0,1-33.712-14.255A94.961,94.961,0,0,1,39.492,58.156,93.632,93.632,0,0,1,65.91,44.893,95.884,95.884,0,0,0,44.791,105.1a97.172,97.172,0,0,0,1.941,19.349,95.978,95.978,0,0,0,56.414,69.116,94.731,94.731,0,0,0,17.935,5.594,95.9,95.9,0,0,0,43.953-1.287,94.6,94.6,0,0,1-31.287,23.451,93.458,93.458,0,0,1-18.952,6.426A94.429,94.429,0,0,1,94.278,230Z" transform="translate(-13364.881 907.054)" fill="#fff"/>
    <path id="Union_14" data-name="Union 14" d="M39.444,136.816C14.464,134.509-3,115.588.43,94.556c2.237-13.7,12.793-24.921,26.786-30.438q.234-.32.472-.638c-1.356-11.071,5-23.5,18.256-32.806C60.252,20.638,78.839,16.891,94.138,19.8,114.084,5.386,145.359-2.426,178.911.673c50.35,4.651,82.225,43.29,81.176,75.3,3.545,10.295,2.375,13.318-2.623,12.389-3.664,6.1-10.7.143-21.163-9.212-3.505-1.687-7.321-3.481-11.419-5.275-23.036-10.088-54.99-20.174-90.755-11.123C75.341,77.623,63.041,126.027,48.5,134.568c-.211,1.557-1.828,2.425-5.637,2.425C41.872,136.994,40.74,136.935,39.444,136.816Z" transform="matrix(0.966, -0.259, 0.259, 0.966, -13402.682, 1096.366)" fill="#b7b7b7" opacity="0.885"/>
    <g id="Group_132" data-name="Group 132" transform="translate(-800.454 -3618.536) rotate(-16)">
      <path id="Union_10" data-name="Union 10" d="M24.218,47.665l-6.33-10.972a2.986,2.986,0,0,1-.4-1.316,2.985,2.985,0,0,1-1.317-.4L5.2,28.647a3,3,0,0,1,0-5.2l10.971-6.33a2.978,2.978,0,0,1,1.47-.406,3.078,3.078,0,0,1,.247-.543L24.218,5.2a3,3,0,0,1,5.2,0l6.33,10.971a3.059,3.059,0,0,1,.286.663,3.058,3.058,0,0,1,.663.285l10.972,6.33a3,3,0,0,1,0,5.2l-10.972,6.33a3.077,3.077,0,0,1-.543.247,2.976,2.976,0,0,1-.406,1.469l-6.33,10.972a3,3,0,0,1-5.2,0Z" transform="translate(-13253.47 1004.665)" fill="#fff"/>
      <path id="Union_11" data-name="Union 11" d="M19.133,37l-3.794-6.578a2.966,2.966,0,0,1-.109-2.791,2.966,2.966,0,0,1-2.79-.109l-6.578-3.8a3,3,0,0,1,0-5.2l6.578-3.8a2.962,2.962,0,0,1,2.555-.21,2.959,2.959,0,0,1,.345-2.09l3.794-6.578a3,3,0,0,1,5.2,0l3.8,6.578a2.96,2.96,0,0,1,.374,1.926,2.96,2.96,0,0,1,1.926.374L37,18.535a3,3,0,0,1,0,5.2l-6.578,3.8a2.959,2.959,0,0,1-2.09.345,2.961,2.961,0,0,1-.21,2.555L24.331,37a3,3,0,0,1-5.2,0Z" transform="translate(-13208.665 1050.8)" fill="#fff"/>
      <path id="Union_12" data-name="Union 12" d="M19.133,37l-3.794-6.578a2.966,2.966,0,0,1-.109-2.791,2.966,2.966,0,0,1-2.79-.109l-6.578-3.8a3,3,0,0,1,0-5.2l6.578-3.8a2.962,2.962,0,0,1,2.555-.21,2.959,2.959,0,0,1,.345-2.09l3.794-6.578a3,3,0,0,1,5.2,0l3.8,6.578a2.96,2.96,0,0,1,.374,1.926,2.96,2.96,0,0,1,1.926.374L37,18.535a3,3,0,0,1,0,5.2l-6.578,3.8a2.959,2.959,0,0,1-2.09.345,2.961,2.961,0,0,1-.21,2.555L24.331,37a3,3,0,0,1-5.2,0Z" transform="translate(-13198.005 979.475)" fill="#fff"/>
    </g>
  </g>
</svg>
