<?xml version="1.0" encoding="utf-8"?>
<!-- Generator: Adobe Illustrator 27.0.1, SVG Export Plug-In . SVG Version: 6.00 Build 0)  -->
<svg version="1.1" id="Lag_1" xmlns="http://www.w3.org/2000/svg" xmlns:xlink="http://www.w3.org/1999/xlink" x="0px" y="0px"
	 viewBox="0 0 2692.91 566.93" style="enable-background:new 0 0 2692.91 566.93;" xml:space="preserve">
<style type="text/css">
	.st0{fill:#1D1D1B;}
	.st1{fill:#295794;}
	.st2{fill:#FFDD00;}
</style>
<g>
	<polygon class="st0" points="1602.47,328.11 1611.67,328.11 1611.67,255.64 1611.92,255.64 1647.37,328.11 1659.86,328.11 
		1659.86,242.04 1650.59,242.04 1650.59,314.75 1650.34,314.75 1614.97,242.04 1602.47,242.04 	"/>
	<g>
		<path class="st0" d="M1693.65,284.83c0-15.58,2.76-36.03,20.05-36.03c17.25,0,20,20.45,20,36.03c0,15.47-2.75,36.56-20,36.56
			C1696.41,321.39,1693.65,300.3,1693.65,284.83 M1713.7,329.49c24.6,0,30.57-22.85,30.57-44.54c0-21.82-5.97-44.27-30.57-44.27
			c-24.69,0-30.65,22.45-30.65,44.27C1683.04,306.65,1689.01,329.49,1713.7,329.49"/>
		<path class="st0" d="M1777.23,250.16h7.22c10.4,0,22.1,0,22.1,14.6c0,14.33-12.19,16.97-23.93,16.97h-5.38V250.16z M1767.5,328.11
			h9.73v-38.3h9.02c13.2,0,15.83,6.01,18.46,18.46l4.22,19.84h9.73l-4.98-23.58c-1.92-9.48-3.04-15.84-14.86-18.96v-0.25
			c8.02-1.99,17.46-6.11,17.46-21.58c0-20.95-21.55-21.71-27.4-21.71h-21.38V328.11z"/>
		<path class="st0" d="M1850.48,250.16h5.47c16.87,0,28.86,3.73,28.86,34.79c0,30.05-10.99,35.06-27.74,35.06h-6.6V250.16z
			 M1840.75,328.11h16.2c20.3,0,38.42-5.12,38.42-43.29c0-27.3-9.52-42.79-35.29-42.79h-19.34V328.11z"/>
		<path class="st0" d="M1937.82,277.22c-6.77-3.74-14.37-7.75-14.37-15.35c0-7.99,6.39-13.08,16.25-13.08
			c9.19,0,16.75,2.86,18.83,3.74v-9.61c-3-0.62-9.77-2.25-17.96-2.25c-15.87,0-27.69,7.24-27.69,22.08
			c0,13.09,10.57,17.85,18.59,22.33l7.61,4.26c7.1,3.98,14.32,7.6,14.32,17.31c0,9.49-7.98,14.75-18.59,14.75
			c-10.48,0-19.09-3.76-20.92-4.51v9.98c2.22,0.5,10.57,2.63,19.8,2.63c16.12,0,30.32-6.24,30.32-24.21
			c0-13.59-9.48-18.83-18.21-23.7L1937.82,277.22z"/>
		<path class="st0" d="M2036.5,314.27c-2.67,1.98-9.64,7.12-20.46,7.12c-21.21,0-24.85-23.09-24.85-37.43
			c0-16.47,3.64-35.17,21.85-35.17c10.1,0,15.7,7.1,15.7,16.69h10.99c0-13.96-9.44-24.81-26.69-24.81
			c-24.73,0-32.41,20.58-32.41,42.78c0,20.96,6.97,46.03,33.04,46.03c12.87,0,19.21-3.63,22.84-5.14V314.27z"/>
	</g>
	<polygon class="st0" points="2058.05,328.11 2067.75,328.11 2067.75,287.45 2103.38,287.45 2103.38,328.11 2113.06,328.11 
		2113.06,242.04 2103.38,242.04 2103.38,279.34 2067.75,279.34 2067.75,242.04 2058.05,242.04 	"/>
	<polygon class="st0" points="2140.54,328.11 2181.06,328.11 2181.06,320.01 2150.23,320.01 2150.23,242.04 2140.54,242.04 	"/>
	<polygon class="st0" points="2197.55,328.11 2240.32,328.11 2240.32,320.01 2207.29,320.01 2207.29,287.07 2237.7,287.07 
		2237.7,278.97 2207.29,278.97 2207.29,250.16 2239.23,250.16 2239.23,242.04 2197.55,242.04 	"/>
	<g>
		<path class="st0" d="M2280.71,277.22c-6.68-3.74-14.29-7.75-14.29-15.35c0-7.99,6.35-13.08,16.17-13.08
			c9.27,0,16.74,2.86,18.83,3.74v-9.61c-2.92-0.62-9.73-2.25-17.92-2.25c-15.83,0-27.69,7.24-27.69,22.08
			c0,13.09,10.61,17.85,18.54,22.33l7.64,4.26c7.1,3.98,14.37,7.6,14.37,17.31c0,9.49-7.98,14.75-18.63,14.75
			c-10.44,0-19.05-3.76-20.93-4.51v9.98c2.22,0.5,10.57,2.63,19.8,2.63c16.12,0,30.28-6.24,30.28-24.21
			c0-13.59-9.4-18.83-18.17-23.7L2280.71,277.22z"/>
	</g>
	<polygon class="st0" points="2337.13,328.11 2348.95,328.11 2369.17,255.03 2369.42,255.03 2389.42,328.11 2401.37,328.11 
		2416.57,242.04 2407.84,242.04 2394.64,315.88 2394.39,315.88 2374.31,242.04 2364.07,242.04 2343.86,315.88 2343.65,315.88 
		2330.53,242.04 2321.76,242.04 	"/>
	<rect x="2438.54" y="242.04" class="st0" width="9.73" height="86.07"/>
	<g>
		<path class="st0" d="M2531.47,279.47h-29.45v8.12h19.71v29.05c-1.5,1.38-7.1,4.76-15.87,4.76c-20.18,0-23.01-22.46-23.01-39.17
			c0-15.6,4.09-33.42,21.55-33.42c12.36,0,16.62,8.97,16.62,16.69h10.98c0-14.34-10.61-24.81-27.74-24.81
			c-23.55,0-32.03,19.58-32.03,41.54c0,24.93,7.23,47.28,34.42,47.28c13.45,0,22.72-6.35,24.81-8.23V279.47z"/>
	</g>
	<polygon class="st0" points="2556.65,328.11 2599.5,328.11 2599.5,320.01 2566.43,320.01 2566.43,287.07 2596.88,287.07 
		2596.88,278.97 2566.43,278.97 2566.43,250.16 2598.34,250.16 2598.34,242.04 2556.65,242.04 	"/>
	<g>
		<path class="st0" d="M2630.41,250.16h7.27c10.36,0,22.05,0,22.05,14.6c0,14.33-12.2,16.97-23.93,16.97h-5.39V250.16z
			 M2620.68,328.11h9.73v-38.3h8.98c13.24,0,15.87,6.01,18.46,18.46l4.25,19.84h9.74l-4.97-23.58c-1.88-9.48-3.01-15.84-14.87-18.96
			v-0.25c7.97-1.99,17.46-6.11,17.46-21.58c0-20.95-21.55-21.71-27.44-21.71h-21.34V328.11z"/>
	</g>
	<g>
		<path class="st0" d="M30.8,287.15h12.36c10.48,0,18.46,5.86,18.46,16.48c0,15.7-14.7,16.2-19.59,16.2H30.8V287.15z M30.8,249.97
			h9.73c6.72,0,17.08,1.01,17.08,13.72c0,15.1-12.95,15.34-18.46,15.34H30.8V249.97z M21.07,327.93h22.84
			c14.08,0,27.44-5.49,27.44-23.31c0-16.73-9.98-20.58-16.62-22.22v-0.23c2.13-0.76,12.61-4.5,12.61-19.09
			c0-13.98-9.61-21.22-23.43-21.22H21.07V327.93z"/>
		<path class="st0" d="M146.57,241.86h-9.73v56.51c0,9.74,0,22.81-17.83,22.81c-16.33,0-16.96-13.07-16.96-22.81v-56.51h-9.73v58.38
			c0,11.21,2.84,29.09,26.31,29.09c26.31,0,27.94-17.87,27.94-29.09V241.86z"/>
	</g>
	<polygon class="st0" points="172.01,327.93 181.24,327.93 181.24,255.46 181.49,255.46 216.9,327.93 229.39,327.93 229.39,241.86 
		220.16,241.86 220.16,314.59 219.91,314.59 184.49,241.86 172.01,241.86 	"/>
	<g>
		<path class="st0" d="M265.35,249.97h5.47c16.83,0,28.82,3.74,28.82,34.81c0,30.05-10.98,35.04-27.69,35.04h-6.6V249.97z
			 M255.62,327.93h16.2c20.34,0,38.43-5.12,38.43-43.28c0-27.32-9.49-42.79-35.34-42.79h-19.29V327.93z"/>
		<path class="st0" d="M379.21,249.97h5.51c16.83,0,28.81,3.74,28.81,34.81c0,30.05-10.98,35.04-27.69,35.04h-6.64V249.97z
			 M369.52,327.93h16.2c20.34,0,38.38-5.12,38.38-43.28c0-27.32-9.44-42.79-35.25-42.79h-19.34V327.93z"/>
	</g>
	<polygon class="st0" points="446.11,327.93 488.88,327.93 488.88,319.83 455.85,319.83 455.85,286.88 486.29,286.88 486.29,278.79 
		455.85,278.79 455.85,249.97 487.8,249.97 487.8,241.86 446.11,241.86 	"/>
	<g>
		<path class="st0" d="M562.39,241.86h-9.73v56.51c0,9.74,0,22.81-17.84,22.81c-16.33,0-16.95-13.07-16.95-22.81v-56.51h-9.73v58.38
			c0,11.21,2.84,29.09,26.31,29.09c26.31,0,27.94-17.87,27.94-29.09V241.86z"/>
	</g>
	<polygon class="st0" points="597.81,327.93 607.54,327.93 607.54,249.97 628.13,249.97 628.13,241.86 577.22,241.86 577.22,249.97 
		597.81,249.97 	"/>
	<g>
		<path class="st0" d="M662.84,277.04c-6.77-3.74-14.37-7.74-14.37-15.34c0-7.99,6.35-13.11,16.21-13.11
			c9.23,0,16.75,2.89,18.84,3.74v-9.58c-3.01-0.64-9.73-2.26-17.92-2.26c-15.87,0-27.73,7.23-27.73,22.08
			c0,13.11,10.6,17.83,18.58,22.32l7.6,4.25c7.14,3.98,14.37,7.6,14.37,17.33c0,9.47-7.97,14.7-18.58,14.7
			c-10.48,0-19.09-3.71-20.97-4.46v9.98c2.25,0.5,10.61,2.63,19.84,2.63c16.08,0,30.32-6.27,30.32-24.22
			c0-13.6-9.48-18.82-18.21-23.7L662.84,277.04z"/>
		<path class="st0" d="M760.24,314.08c-2.59,2-9.61,7.1-20.47,7.1c-21.18,0-24.81-23.06-24.81-37.4c0-16.47,3.63-35.19,21.8-35.19
			c10.15,0,15.74,7.11,15.74,16.73h10.98c0-13.98-9.48-24.83-26.73-24.83c-24.68,0-32.41,20.58-32.41,42.78
			c0,20.98,6.97,46.06,33.08,46.06c12.82,0,19.21-3.63,22.81-5.14V314.08z"/>
	</g>
	<polygon class="st0" points="780.57,327.93 790.31,327.93 790.31,287.27 825.85,287.27 825.85,327.93 835.58,327.93 835.58,241.86 
		825.85,241.86 825.85,279.17 790.31,279.17 790.31,241.86 780.57,241.86 	"/>
	<polygon class="st0" points="861.76,327.93 904.57,327.93 904.57,319.83 871.5,319.83 871.5,286.88 901.94,286.88 901.94,278.79 
		871.5,278.79 871.5,249.97 903.45,249.97 903.45,241.86 861.76,241.86 	"/>
	<path class="st0" d="M934.27,249.97h7.22c10.36,0,22.09,0,22.09,14.6c0,14.35-12.24,16.97-23.97,16.97h-5.35V249.97z
		 M924.54,327.93h9.73v-38.3h8.98c13.24,0,15.83,5.98,18.46,18.48l4.22,19.82h9.73l-4.97-23.58c-1.84-9.48-3-15.84-14.83-18.96
		v-0.24c7.93-2,17.46-6.12,17.46-21.57c0-20.97-21.59-21.72-27.48-21.72h-21.3V327.93z"/>
</g>
<g>
	<path class="st1" d="M1086.31,353.86c0-0.12,0-6.39,0-6.55v-1.06c0.21-55.06,0-102.67,0-150.93l0,0c0-48.17,0.08-90.12,0-119.95
		l0,0c-0.04-29.87,0-48.74,0-48.78h4.26h384.16h4.93c0,0,0,10.05,0,25.88l0,0c0,15.84,0,38.88,0,67.79l0,0
		c0,57.78,0,135.65,0,229.37v3.32c0,43.14-22.6,91.3-59.93,127.68c-35.38,34.5-84.2,58.27-136.7,58.22l0,0
		c-98.27-0.08-197.34-83.97-197.38-171.95L1086.31,353.86z"/>
	<g>
		<g>
			<path class="st2" d="M1258.73,117.58c0,0,82.48,0.26,104.01,6.22c5.98,0.96,21.02-17.76-2.21-17.76
				c-12.06,0-18.46,4.54-39.03,4.54c-8.31,0-17.38-5.45-21.01-7.53c-2.62-1.27-12.41,7.53-12.19,1.56
				c0.22-8.38,8.04-8.08,8.04-10.03c0-2.51-4.67-14.35,12.96-14.35c17.64,0,15.22,7.35,31.31,7.35c9.93,0,17.29-8.47,21.44-8.47
				c0,0,10.38-3.2,5.2,3.2c-2.38,3.59,13.82-2.68,13.82,1.12c0,3.81-5.88,0.69-5.88,4.15c0,3.46,9.96-1.04,9.96,2.85
				c0,0-2,4.41-12.54,4.41c-10.55,0-7.95-3.63-21.71-3.63c-3.11,0,10.13,6.74-13.45,6.74c-7.94,0-12.32-11.32-28.15-11.32
				c-0.71,0-6.28-0.76-6.28,8c0,2.98,9.15,9.79,18.81,9.79c19.85,0,22.7-4.54,39.3-4.54c32.62,0,15.71,30.15,2.15,30.15
				c-1.35,0,4.4,9.28,10.37,9.28c4.61,0,5.97,0.06,13.55,0.06c7.58,0,5.51,14.52,9.34,14.52c3.82,0,9.21-0.25,9.21,6.03
				c0,6.29-4.02,4.16-4.02,9.41c0,2.46,5.5,4.34,3.11,9.53c-1.95,3.79-6.32-5.71-9.53-5.18c-2.79,0.51,3.3,9.33-1.91,9.33
				c-5.62,0-4.05-7.3-8.37-7.3c-5.22,0-6.26,12.61-18.44,12.61c-3.38,0,2.33-5.12-0.66-5.45c-2.65,0-15.37,5.32-15.37,1.69
				c0-3.63,4.35-3.5,4.35-6.61c0-2.14-9.34,0.97-9.34-4.61c0-3.5,5.38-2.33,5.38-5.38c0-1.94-6.03-0.06-6.03-4.8c0-2,3.77-2,6.74-2
				c7.01,0,10.06,8.23,17.84,8.23c10.89,0,11.42-15.74,7.2-15.43c-44.42,3.76-36.38-15.63-48.89-15.63
				c-61.67-2.2-36.76,11.28-64.4,12.45c-13.36,0.56-15.42,1.1-22.56,1.21c-7.72,0-7.72,11.89-11.74,3.01
				c-1.36-3.31-3.08,8.6-6.94,5.96c-1.36-1.08-0.85-1.93-2.08-3.95c-1.98-2.2-3.37,9.92-6.22,7.07c-2.32-2.32,0.56-4.95-3.2-4.95
				c-4.36,0-2.5,7.22-8.12,7.22c-4.72,0,0.86-5.14-4.33-5.14c-5.58,0-5.49,7.31-13.62,7.31c-3.76,0,3.85-6.18-0.86-6.18
				c-4.72,0-8.05,7.26-18.72,3.07c-3.9-1.77,4.28-3.5,4.28-10.93c0-4.5-14.5,1.84-13.62-5.53c0.47-4.13,10.42-2.33,10.42-6.96
				c-0.21-2.46-6.46-3.09-3.5-6.05c5.88-5.88,12.63,8.73,21.18,8.73c14.74,0,30.11-16.54,32.1-14.55c3.04,3.04-0.06,7.37,6.33,7.37
				c3.76,0,5.92-4.93,8.26-4.93c4.46,0,3.5,7.31,11.41,3.85C1255.48,130.5,1255.87,117.56,1258.73,117.58z"/>
			<path class="st2" d="M1323.65,142.74c4.69,2.14-6.43,5.14-2.81,14.01c1.86,4.14,15.3,3.98,15.3,14.65c0,4.15-3.11,8.37-6.61,8.37
				c-3.51,0-3.51-2.5-3.51-3.05c0-0.54-3.76,6.43-7.39,6.43c0,0-2.08,0.84-2.08-3.37c0-3.24-14.45,8.24-14.45,8.24
				s-5.97,4.84-5.97-4.15c0-3.46-15.5,5.79-15.5-0.65c0-1.51,1.6-5.01,6.62-5.01c5.01,0-9.08-0.95-9.08-4.93
				c0-3.25,4.19-2.55,4.19-5.71c0-2.34-10.35-7.25-0.31-7.25c14.75,0,10.39,9.28,16.79,9.28c6.39,0,9.47,0.65,9.47-3.15
				c0-5.19-10.81-4.32-10.81-11.68C1297.5,147.4,1311.19,137.03,1323.65,142.74z"/>
			<path class="st2" d="M1206.36,84.15c1.93,0.18,11.64,0.83,11.64,2.91c0,2.07-10.33,3.85-14.44,2.59
				c-2.59-0.58-7.94-5.78-2.9-10.98C1203.86,75.36,1203.61,83.97,1206.36,84.15z"/>
			<path class="st2" d="M1184.72,95.19c1.47,13.79,18.6,17.16,19.72,23.09c0.57,3.07-2.14,4.72-3.72,8.3
				c-2.68,6.05-3.51,8.1-5.45,8.1c-4.76,0-3.18-2.13-3.65-2.61c-0.48-0.47-5.08,2.06-5.08-1.57c0-1.99,0.34-2.55,0.34-4.27
				c0-1.73-2.69,1.86-6.22-1.67c-2.48-2.48,2.27-2.72,1.38-4.2c-0.89-1.48-10.03-1.39-10.03-5.97c0-2.55,3.8-2.51,5.27-2.51
				c1.47,0-11.1-6.33-9.6-11.06c0.56-1.77,4.46-0.34,6.01-1.9c1.56-1.56-6.87-6.23-6.87-9.51s1.29-3.72,7.86-2.25
				c4.1,0.91-0.39-5.97,2.94-5.97c3.33,0,10.55-0.6,10.55,3.81C1188.17,91.86,1184.15,90,1184.72,95.19z"/>
			<path class="st2" d="M1234.74,82.56c0-2.36,1.92-4.28,4.28-4.28c2.36,0,4.28,1.92,4.28,4.28c0,2.36-1.91,4.28-4.28,4.28
				C1236.65,86.84,1234.74,84.92,1234.74,82.56z M1225.79,83.68c1.55,0.63,2.77,4.14,1.03,8.65c-1.06,2.77-7.42,1.67-8.29-0.62
				c-1.81-4.74-3.98,7.79-2.17,7.79c16.25,0,15.13,2.85,15.13,5.88c0,3.02-4.93,7.6-13.83,9.94c-8.9,2.33-15.86,14.66-13.17,16.48
				c2.64,1.81,7.81-8.04,14.54-6.53c4.32,0.98,0.6,5.07,2.43,6.47c3.39,2.6,9.14-5.94,13.15-4.75c4.67,1.39-0.69,5.45,3.37,5.45
				c13.58,0,14.27-21.09,19.97-19.89c17.06,3.62,17.94-5.39,18.33-8.56c0.25-2.05-2.29-0.87-4.65-0.88
				c-3.55-0.02-7.25-1.22-3.48-2.83c7.23-3.09,6.37-8.64,6.49-10.11c0.21-2.77-8.61,1.82-8.61-0.31c0-3.28,3.94-2.12,3.94-7.13
				c0-3.2-11.76,0.65-10.98-3.98c0.74-4.39,6.66-0.73,6.32-3.55c-0.25-1.97-4.11-5.7-12.19-5.7c-10.2,0-7.9,2.2-9.94,2.2
				c-2.2,0-0.45-0.34-5.64-0.34c-3.76,0-2.99,3.76-4.65,3.76c-1.99,0-3.89,0-8.65,0c-6.23,0-6.63,6.92-6.63,6.92
				C1217.59,84.2,1224.82,83.3,1225.79,83.68z"/>
		</g>
		<g>
			<path class="st2" d="M1258.73,238.45c0,0,82.48,0.26,104.01,6.23c5.98,0.96,21.02-17.77-2.21-17.77
				c-12.06,0-18.46,4.54-39.03,4.54c-8.31,0-17.38-5.44-21.01-7.52c-2.62-1.27-12.41,7.52-12.19,1.56
				c0.22-8.38,8.04-8.08,8.04-10.03c0-2.51-4.67-14.36,12.96-14.36c17.64,0,15.22,7.35,31.31,7.35c9.93,0,17.29-8.47,21.44-8.47
				c0,0,10.38-3.2,5.2,3.2c-2.38,3.59,13.82-2.68,13.82,1.13c0,3.8-5.88,0.69-5.88,4.15s9.96-1.04,9.96,2.85c0,0-2,4.41-12.54,4.41
				c-10.55,0-7.95-3.63-21.71-3.63c-3.11,0,10.13,6.74-13.45,6.74c-7.94,0-12.32-11.33-28.15-11.33c-0.71,0-6.28-0.76-6.28,8
				c0,2.98,9.15,9.79,18.81,9.79c19.85,0,22.7-4.54,39.3-4.54c32.62,0,15.71,30.15,2.15,30.15c-1.35,0,4.4,9.27,10.37,9.27
				c4.61,0,5.97,0.06,13.55,0.06c7.58,0,5.51,14.53,9.34,14.53c3.82,0,9.21-0.26,9.21,6.03c0,6.29-4.02,4.15-4.02,9.4
				c0,2.47,5.5,4.36,3.11,9.54c-1.95,3.8-6.32-5.7-9.53-5.18c-2.79,0.51,3.3,9.34-1.91,9.34c-5.62,0-4.05-7.31-8.37-7.31
				c-5.22,0-6.26,12.62-18.44,12.62c-3.38,0,2.33-5.12-0.66-5.45c-2.65,0-15.37,5.32-15.37,1.69c0-3.64,4.35-3.5,4.35-6.62
				c0-2.14-9.34,0.97-9.34-4.61c0-3.5,5.38-2.33,5.38-5.38c0-1.94-6.03-0.07-6.03-4.8c0-2.01,3.77-2.01,6.74-2.01
				c7.01,0,10.06,8.23,17.84,8.23c10.89,0,11.42-15.73,7.2-15.43c-44.42,3.76-36.38-15.63-48.89-15.63
				c-61.67-2.2-36.76,11.28-64.4,12.45c-13.36,0.57-15.42,1.1-22.56,1.21c-7.72,0-7.72,11.89-11.74,3c-1.36-3.31-3.08,8.6-6.94,5.97
				c-1.36-1.08-0.85-1.94-2.08-3.96c-1.98-2.2-3.37,9.92-6.22,7.07c-2.32-2.32,0.56-4.95-3.2-4.95c-4.36,0-2.5,7.23-8.12,7.23
				c-4.72,0,0.86-5.15-4.33-5.15c-5.58,0-5.49,7.31-13.62,7.31c-3.76,0,3.85-6.18-0.86-6.18c-4.72,0-8.05,7.26-18.72,3.07
				c-3.9-1.77,4.28-3.49,4.28-10.94c0-4.5-14.5,1.84-13.62-5.53c0.47-4.13,10.42-2.33,10.42-6.96c-0.21-2.46-6.46-3.09-3.5-6.05
				c5.88-5.88,12.63,8.73,21.18,8.73c14.74,0,30.11-16.53,32.1-14.54c3.04,3.05-0.06,7.37,6.33,7.37c3.76,0,5.92-4.93,8.26-4.93
				c4.46,0,3.5,7.31,11.41,3.85C1255.48,251.37,1255.87,238.43,1258.73,238.45z"/>
			<path class="st2" d="M1323.65,263.61c4.69,2.14-6.43,5.14-2.81,14.01c1.86,4.14,15.3,3.99,15.3,14.66c0,4.15-3.11,8.37-6.61,8.37
				c-3.51,0-3.51-2.5-3.51-3.06c0-0.55-3.76,6.42-7.39,6.42c0,0-2.08,0.85-2.08-3.37c0-3.25-14.45,8.23-14.45,8.23
				s-5.97,4.83-5.97-4.16c0-3.45-15.5,5.8-15.5-0.64c0-1.52,1.6-5.02,6.62-5.02c5.01,0-9.08-0.95-9.08-4.93
				c0-3.25,4.19-2.56,4.19-5.72c0-2.33-10.35-7.25-0.31-7.25c14.75,0,10.39,9.28,16.79,9.28c6.39,0,9.47,0.65,9.47-3.15
				c0-5.18-10.81-4.32-10.81-11.67S1311.19,257.9,1323.65,263.61z"/>
			<path class="st2" d="M1206.36,205.02c1.93,0.19,11.64,0.83,11.64,2.91c0,2.07-10.33,3.85-14.44,2.59
				c-2.59-0.58-7.94-5.78-2.9-10.98C1203.86,196.23,1203.61,204.84,1206.36,205.02z"/>
			<path class="st2" d="M1184.72,216.06c1.47,13.79,18.6,17.16,19.72,23.08c0.57,3.06-2.14,4.72-3.72,8.3
				c-2.68,6.05-3.51,8.1-5.45,8.1c-4.76,0-3.18-2.13-3.65-2.6c-0.48-0.47-5.08,2.06-5.08-1.57c0-1.99,0.34-2.54,0.34-4.27
				c0-1.73-2.69,1.86-6.22-1.67c-2.48-2.48,2.27-2.72,1.38-4.2c-0.89-1.48-10.03-1.38-10.03-5.97c0-2.55,3.8-2.51,5.27-2.51
				c1.47,0-11.1-6.33-9.6-11.06c0.56-1.77,4.46-0.35,6.01-1.9c1.56-1.56-6.87-6.22-6.87-9.51c0-3.28,1.29-3.72,7.86-2.25
				c4.1,0.91-0.39-5.96,2.94-5.96c3.33,0,10.55-0.61,10.55,3.8C1188.17,212.72,1184.15,210.86,1184.72,216.06z"/>
			<path class="st2" d="M1234.74,203.43c0-2.36,1.92-4.28,4.28-4.28c2.36,0,4.28,1.92,4.28,4.28c0,2.36-1.91,4.28-4.28,4.28
				C1236.65,207.71,1234.74,205.79,1234.74,203.43z M1225.79,204.56c1.55,0.63,2.77,4.13,1.03,8.64c-1.06,2.77-7.42,1.67-8.29-0.62
				c-1.81-4.74-3.98,7.8-2.17,7.8c16.25,0,15.13,2.85,15.13,5.88c0,3.02-4.93,7.61-13.83,9.94c-8.9,2.34-15.86,14.66-13.17,16.49
				c2.64,1.8,7.81-8.04,14.54-6.53c4.32,0.98,0.6,5.07,2.43,6.48c3.39,2.6,9.14-5.95,13.15-4.76c4.67,1.38-0.69,5.44,3.37,5.44
				c13.58,0,14.27-21.09,19.97-19.88c17.06,3.62,17.94-5.39,18.33-8.57c0.25-2.05-2.29-0.86-4.65-0.88
				c-3.55-0.02-7.25-1.22-3.48-2.83c7.23-3.09,6.37-8.65,6.49-10.12c0.21-2.76-8.61,1.82-8.61-0.3c0-3.28,3.94-2.12,3.94-7.13
				c0-3.2-11.76,0.65-10.98-3.98c0.74-4.39,6.66-0.73,6.32-3.54c-0.25-1.97-4.11-5.7-12.19-5.7c-10.2,0-7.9,2.19-9.94,2.19
				c-2.2,0-0.45-0.33-5.64-0.33c-3.76,0-2.99,3.76-4.65,3.76c-1.99,0-3.89,0-8.65,0c-6.23,0-6.63,6.92-6.63,6.92
				C1217.59,205.07,1224.82,204.17,1225.79,204.56z"/>
		</g>
		<line class="st2" x1="1496.08" y1="8.63" x2="1068.83" y2="8.63"/>
		<path class="st2" d="M1346.97,443.48c-1.31-0.8-26.95,22.45-64.97,1.42c0-0.02,0-0.05,0-0.06c-0.02,0-0.04,0.02-0.06,0.03
			c-0.01,0-0.01-0.01-0.01-0.01c0,0.01,0,0.02,0,0.02c-38.02,21.02-63.66-2.23-64.97-1.43c-33.54,21.45-64.16,1.9-65.02,1.39
			c30.26,34.93,63.75,14.59,65.36,15.22c35.46,20.28,61.29,3.66,64.65,1.31c3.22,2.27,29.1,19.06,64.67-1.28
			c1.62-0.64,35.1,19.71,65.36-15.22C1411.12,445.37,1380.51,464.92,1346.97,443.48z"/>
		<path class="st2" d="M1346.67,471.09c0,0-27.26,21.05-64.72,0.94v-0.05c-0.01,0.01-0.03,0.01-0.04,0.02
			c-0.02-0.02-0.06-0.02-0.08-0.04v0.09c-37.46,20.12-64.73-0.93-64.73-0.93c-18.15,15.4-46,0-46,0
			c14.01,24.3,43.36,13.8,44.79,15.22c29.26,20.2,65.28,1.79,66.02,1.4c1.75,0.89,37.15,18.46,65.97-1.42
			c1.42-1.43,30.78,9.07,44.79-15.22C1392.68,471.09,1364.83,486.48,1346.67,471.09z"/>
		<path class="st2" d="M1281.91,496.39c0,0,0-0.01,0-0.03c-33.2,20.24-65.01-0.69-65.01-0.69c20.51,32.57,64.71,19.66,65.01,16.63
			c0.09,2.99,44.45,16.04,65.02-16.61C1346.93,495.7,1315.12,516.61,1281.91,496.39z"/>
		<path class="st2" d="M1069.12,9l-0.22,340.49c0,116.52,95.34,211.86,211.86,211.86h3.53c116.53,0,211.86-95.34,211.86-211.86V8.71
			L1069.12,9z M1282.39,528.92c-60.56,0-120.43-32.45-156.5-90.77l0.39-0.02l55.63-0.29c0,0,5.53-14.18,8.99-24.9
			c30.09-8.99,60.87-10.38,60.87-10.38l6.92,34.93h46.37l6.92-34.93c0,0,30.77,1.38,60.86,10.38c3.46,10.72,9,24.9,9,24.9
			l57.04-0.45C1398.45,501.34,1338.87,528.92,1282.39,528.92z M1201.98,332.7c0,0,0,0,55.68-6.57c-1.05,10.72-5.88,33.9-5.88,33.9
			s-24.9,2.41-44.61,5.18C1206.67,358.1,1201.98,332.7,1201.98,332.7z M1306.1,326.13c55.68,6.57,55.68,6.57,55.68,6.57
			s-4.69,25.4-5.19,32.51c-19.71-2.77-44.61-5.18-44.61-5.18S1307.15,336.85,1306.1,326.13z M1463.85,352.55
			c0,14.24-2.93,32.09-6.94,44.62l-56.76-21.23l-1.73-34.93l25.25,6.92v-12.46c0,0-56.08-20.97-141.47-21.09c-0.11,0-0.22,0-0.33,0
			c-0.12,0-0.22,0-0.34,0c-85.39,0.12-141.47,21.09-141.47,21.09v12.46l25.24-6.92l-1.73,34.93l-56.12,21.22
			c-3.75-12.48-6.6-26.77-6.6-41.24c0-152.46,0-313,0-313l363.57,0.29C1464.43,43.21,1463.85,179.63,1463.85,352.55z"/>
	</g>
</g>
</svg>
