<svg xmlns="http://www.w3.org/2000/svg" width="313.016" height="291.606" viewBox="0 0 313.016 291.606">
  <g id="Group_129" data-name="Group 129" transform="translate(12631.729 -850.394)">
    <rect id="Rectangle_47" data-name="Rectangle 47" width="6" height="20" transform="translate(-12579 1078)" fill="#00aed8"/>
    <rect id="Rectangle_48" data-name="Rectangle 48" width="6" height="40" transform="translate(-12565 1078)" fill="#00aed8"/>
    <rect id="Rectangle_49" data-name="Rectangle 49" width="6" height="39" transform="translate(-12579 1103)" fill="#00aed8"/>
    <rect id="Rectangle_50" data-name="Rectangle 50" width="6" height="11" transform="translate(-12565 1123)" fill="#00aed8"/>
    <path id="Union_15" data-name="Union 15" d="M42.754,148.8C15.678,146.291-3.254,125.713.466,102.838c2.425-14.9,13.867-27.1,29.034-33.1q.253-.348.512-.694C28.543,57,35.429,43.476,49.8,33.361c15.507-10.915,35.654-14.99,52.238-11.831,21.62-15.671,55.52-24.168,91.887-20.8C248.5,5.79,283.052,47.814,281.914,82.623c3.843,11.2,2.574,14.484-2.843,13.474-3.971,6.636-11.6.156-22.939-10.019-3.8-1.834-7.935-3.786-12.377-5.737-24.969-10.971-59.6-21.941-98.372-12.1-63.719,16.178-77.052,68.822-92.817,78.112-.229,1.693-1.982,2.637-6.11,2.638C45.386,148.994,44.159,148.93,42.754,148.8Z" transform="matrix(0.966, -0.259, 0.259, 0.966, -12631.729, 923.933)" fill="#b7b7b7" opacity="0.885"/>
  </g>
</svg>
