<svg xmlns="http://www.w3.org/2000/svg" width="313.431" height="257.276" viewBox="0 0 313.431 257.276">
  <g id="Group_134" data-name="Group 134" transform="translate(12654.192 -1301.5)">
    <path id="Path_11" data-name="Path 11" d="M86,0a86,86,0,0,1,86,86c0,47.5-38.505-24.075-86-24.075S0,133.5,0,86A86,86,0,0,1,86,0Z" transform="translate(-12549.407 1458.037) rotate(-16)" fill="#eabd02"/>
    <line id="Line_15" data-name="Line 15" y1="30" x2="31" transform="translate(-12373.5 1420.5)" fill="none" stroke="#eabd02" stroke-width="5"/>
    <line id="Line_16" data-name="Line 16" y1="20" x2="44" transform="translate(-12582.5 1536.5)" fill="none" stroke="#eabd02" stroke-width="5"/>
    <line id="Line_17" data-name="Line 17" y1="58" x2="36" transform="translate(-12403.5 1372.5)" fill="none" stroke="#eabd02" stroke-width="5"/>
    <line id="Line_18" data-name="Line 18" y1="118" transform="translate(-12443.5 1301.5)" fill="none" stroke="#eabd02" stroke-width="5"/>
    <line id="Line_19" data-name="Line 19" y1="14" x2="87" transform="translate(-12629.5 1511.5)" fill="none" stroke="#eabd02" stroke-width="5"/>
    <line id="Line_20" data-name="Line 20" x2="111" y2="32" transform="translate(-12653.5 1446.5)" fill="none" stroke="#eabd02" stroke-width="5"/>
    <line id="Line_21" data-name="Line 21" x2="46" y2="93" transform="translate(-12529.5 1333.5)" fill="none" stroke="#eabd02" stroke-width="5"/>
    <line id="Line_22" data-name="Line 22" x2="46" y2="45" transform="translate(-12566.5 1406.5)" fill="none" stroke="#eabd02" stroke-width="5"/>
  </g>
</svg>
