<?xml version="1.0" encoding="UTF-8"?><svg id="Layer_1" xmlns="http://www.w3.org/2000/svg" viewBox="0 0 283.46 47.93"><defs><style>.cls-1{fill:#005da4;}.cls-2{fill:#231f20;}</style></defs><path class="cls-2" d="m.21,27.91c1.56-.04,2.7-.31,3.12-2.05L8.24,6.06c.17-.67.24-1.22.24-1.65,0-1.26-.8-1.5-2.46-1.54l.21-1.06h11.01c7.17.08,11.43,3.5,11.43,12.08,0,5.47-3.81,15.07-17.18,15.07H0l.21-1.06Zm9.42-3.66c-.21.91-.28,1.42-.28,1.93,0,1.26.59,1.34,2.22,1.34,2.18,0,3.98-.16,5.78-1.65,3.71-2.79,5.44-10.31,5.44-14.96,0-5.16-1.66-7.64-6.37-7.64-1.52,0-1.66.47-2.11,2.2l-4.68,18.77Z"/><path class="cls-2" d="m40.98,24.84c-2.01,2.48-4.19,4.64-7.34,4.64-3.53,0-5.33-2.72-5.33-6.53,0-6.3,5.26-12.83,10.88-12.83,1.87,0,3.46,1.14,3.46,3.46,0,4.84-6.03,6.61-9.18,7.28-.17.59-.48,2.24-.48,3.31,0,.98.42,2.56,2.56,2.56,1.87,0,3.46-1.34,4.75-2.75l.69.87Zm-3.15-13.46c-1.97,0-3.91,6.22-4.16,8.03,2.46-.35,5.09-4.01,5.09-6.49,0-1.02-.35-1.53-.94-1.53Z"/><path class="cls-2" d="m45.3,15.35c.24-.94.31-1.65.31-2.09,0-.94-.55-.98-2.22-.98l.24-1.06c1.91,0,5.02-.28,6.75-1.1l.35.47-1.52,5.39.07.08c.97-1.77,2.7-5.94,4.92-5.94,1.42,0,1.97,1.5,1.97,2.95,0,1.81-.55,3.5-2.29,3.5-.62,0-.97-.43-1.28-.87-.28-.43-.52-.94-1-.94-.94,0-2.22,2.6-3.05,6.34l-1.94,7.87h-4.68l3.36-13.62Z"/><path class="cls-2" d="m59.59,27.91c2.11-.04,2.84-1.26,3.33-3.35l4.61-18.66c-.9-2.13-1.35-2.99-3.19-3.03l.21-1.06h7.69l8.87,18.42,3.46-14.17c.14-.55.17-1.02.17-1.42,0-1.22-.8-1.73-2.46-1.77l.17-1.06h7.24l-.17,1.06c-1.77.04-2.87,1.1-3.46,3.5l-5.68,23.18h-1.25l-10.53-21.65-3.95,16.02c-.17.75-.28,1.38-.28,1.89,0,1.53.83,2.05,2.6,2.09l-.21,1.06h-7.38l.21-1.06Z"/><path class="cls-2" d="m94.96,10.12c3.53,0,5.89,2.64,5.89,6.73,0,5.98-5.4,12.63-10.77,12.63-3.78,0-6.23-2.05-6.23-6.22,0-6.73,4.81-13.15,11.12-13.15Zm-4.43,18.11c3.12,0,5.65-11.22,5.65-13.85,0-2.32-1-2.99-2.01-2.99-3.26,0-5.65,11.85-5.65,13.97,0,1.89.55,2.87,2.01,2.87Z"/><path class="cls-2" d="m103.18,15.35c.24-.94.31-1.65.31-2.09,0-.94-.55-.98-2.22-.98l.24-1.06c1.91,0,5.02-.28,6.75-1.1l.35.47-1.52,5.39.07.08c.97-1.77,2.7-5.94,4.92-5.94,1.42,0,1.97,1.5,1.97,2.95,0,1.81-.55,3.5-2.29,3.5-.62,0-.97-.43-1.28-.87-.28-.43-.52-.94-1-.94-.94,0-2.22,2.6-3.05,6.34l-1.94,7.87h-4.68l3.36-13.62Z"/><path class="cls-2" d="m125.03,1.18c2.29-.04,5.09-.2,6.89-1.18l.38.43-5.61,23.69c-.14.55-.14,1.02-.14,1.26,0,.55.28.75.66.75.66,0,1.52-1.69,1.91-2.44l.73.59c-1.32,2.28-3.01,5.2-5.65,5.2-1.63,0-2.32-1.14-2.32-2.91,0-.55,0-1.06.1-1.61h-.07c-1.42,2.52-3.08,4.53-5.85,4.53-3.22,0-4.36-1.77-4.36-4.8,0-5.35,4.57-14.56,9.8-14.56,1.45,0,2.63.83,3.43,2.28l1.73-7.16c.17-.71.28-1.22.28-1.65,0-1.02-.59-1.3-2.04-1.34l.14-1.06Zm-2.63,10.67c-2.94,0-6.03,9.8-6.03,12.08,0,1.5.59,2.4,1.73,2.48.97,0,2.46-.51,3.81-3.46.94-2.05,2.32-5.98,2.46-8.34,0-1.46-.48-2.76-1.97-2.76Z"/><path class="cls-2" d="m130.8,22.55l.94.24c0,2.24,1,4.96,3.39,4.96,1.18,0,2.22-.87,2.22-2.2,0-1.42-1.21-2.91-2.42-4.57-1.21-1.65-2.42-3.46-2.42-5.51,0-3.46,2.18-5.35,5.26-5.35,2.15,0,3.43,1.14,3.95,1.14.42,0,.76-.35.97-1.14h.94l-1.04,6.1-.94-.2c-.17-2.09-.76-4.64-3.05-4.64-1.14,0-1.8,1.02-1.8,2.28s1.21,2.6,2.42,4.25c1.21,1.65,2.42,3.54,2.42,5.75,0,3.54-2.36,5.82-5.54,5.82-2.29,0-3.26-1.26-4.47-1.26-.55,0-.8.39-.94.94l-.94-.2,1.04-6.42Z"/><path class="cls-2" d="m156.14,24.36c-1.66,2.79-4.16,5.12-7.27,5.12-3.64-.04-5.78-2.36-5.78-6.38,0-4.37,1.49-7.24,3.5-9.41,2.46-2.68,4.81-3.58,6.65-3.58,2.56,0,4.54,1.22,4.54,3.7,0,1.46-1.04,2.79-2.53,2.79-1.28,0-2.15-.79-2.15-2.09,0-.59.21-.98.38-1.34.21-.35.38-.63.38-.94,0-.59-.55-.87-.97-.87-2.36,0-5.13,6.69-5.13,11.77,0,2.32,1.21,3.58,2.84,3.58,2.04,0,3.46-1.3,4.64-3.07l.9.71Z"/><path class="cls-2" d="m161.99,5.31c.31-1.22.35-1.77.35-2.16,0-.71-.28-.87-1.9-.91l.17-1.06c2.08-.12,4.85-.2,6.89-1.18l.38.51-3.53,14.21.07.08c1.52-2.01,3.46-4.68,5.85-4.68,1.77,0,2.87,1.53,2.87,3.46,0,.63-.24,1.89-.38,2.36l-2.18,8.42c-.1.47-.17.91-.17,1.18,0,.43.1.59.35.59.73,0,1.87-1.97,2.22-2.56l.73.59c-1.49,2.24-3.12,5.31-5.92,5.31-1.21,0-2.04-.98-2.04-2.79,0-.79.28-2.13.62-3.5l1.9-7.48c.14-.51.21-.91.21-1.22,0-.79-.38-1.02-.87-1.02-2.36,0-4.33,5.86-5.13,9.05l-1.59,6.45h-4.71l5.82-23.65Z"/><path class="cls-2" d="m177.85,1.18c2.08-.12,4.85-.2,6.89-1.18l.38.51-5.61,23.03c-.28,1.14-.45,1.73-.45,1.97,0,.47.24.63.59.63.66,0,1.59-1.81,2.04-2.56l.73.55c-1.32,2.13-3.08,5.35-5.68,5.35-1.59,0-2.36-.98-2.36-2.79,0-.63.1-1.42.31-2.24l4.54-19.13c.31-1.22.35-1.77.35-2.16,0-.71-.28-.87-1.9-.91l.17-1.06Z"/><path class="cls-2" d="m195.9,24.84c-2.01,2.48-4.19,4.64-7.34,4.64-3.53,0-5.33-2.72-5.33-6.53,0-6.3,5.26-12.83,10.88-12.83,1.87,0,3.46,1.14,3.46,3.46,0,4.84-6.03,6.61-9.18,7.28-.17.59-.49,2.24-.49,3.31,0,.98.42,2.56,2.56,2.56,1.87,0,3.46-1.34,4.75-2.75l.69.87Zm-3.15-13.46c-1.97,0-3.91,6.22-4.16,8.03,2.46-.35,5.09-4.01,5.09-6.49,0-1.02-.35-1.53-.94-1.53Z"/><path class="cls-2" d="m197.14,22.55l.94.24c0,2.24,1,4.96,3.39,4.96,1.18,0,2.22-.87,2.22-2.2,0-1.42-1.21-2.91-2.42-4.57-1.21-1.65-2.42-3.46-2.42-5.51,0-3.46,2.18-5.35,5.26-5.35,2.15,0,3.43,1.14,3.95,1.14.42,0,.76-.35.97-1.14h.94l-1.04,6.1-.94-.2c-.17-2.09-.76-4.64-3.05-4.64-1.14,0-1.8,1.02-1.8,2.28s1.21,2.6,2.42,4.25c1.21,1.65,2.42,3.54,2.42,5.75,0,3.54-2.36,5.82-5.54,5.82-2.29,0-3.26-1.26-4.47-1.26-.55,0-.8.39-.94.94l-.94-.2,1.04-6.42Z"/><path class="cls-2" d="m220.38,18.5l-6.93,11.18h-1.11v-13.07c0-3.62-.42-4.05-2.25-4.05l.1-1.06c2.11-.28,4.12-.75,4.68-.91.69-.2,1.07-.47,1.25-.47.76,0,.9,4.29.9,6.34v5.08h.07c2.25-3.7,4.47-7.48,6.55-11.41h.73l1.07,13.85,2.56-3.58c1.39-1.93,1.73-3.19,1.73-3.98,0-1.65-1.7-1.54-1.7-3.9,0-1.14.94-2.4,1.94-2.4,1.73,0,2.53,1.42,2.53,3.11,0,3.5-4.85,10.12-5.89,11.37l-4.26,5.08h-.94l-1.04-11.18Z"/><path class="cls-2" d="m237.04,25.19c-.03.16-.07.31-.07.47,0,.32.1.47.35.47.83,0,1.73-1.65,2.25-2.48l.73.51c-1.35,2.4-3.15,5.31-5.96,5.31-1.28,0-2.04-.75-2.04-2.6,0-.83.17-1.85.48-3.15l2.11-8.38c.21-.75.35-1.77.35-2.16,0-.79-.52-.79-2.04-.91l.17-1.06c2.25,0,5.37-.28,7.1-1.1l.35.51-3.78,14.56Zm2.46-23.38c1.49,0,2.7,1.34,2.7,3.03s-1.21,3.07-2.7,3.07-2.67-1.38-2.67-3.07,1.18-3.03,2.67-3.03Z"/><path class="cls-2" d="m257.14,12.67h-2.39c.52.94.76,2.01.76,3.42,0,3.38-3.26,6.89-7.55,6.89-.9,0-1.9-.16-2.6-.31-.24.28-.42.79-.42.98,0,2.44,9.07,2.13,9.07,7.99,0,4.45-4.43,6.3-8.28,6.3-3.39,0-7.2-1.46-7.2-4.57s1.87-4.45,4.26-4.96c-.73-.51-1.21-1.46-1.21-2.44,0-1.38.8-2.56,2.7-3.9-1.63-1.06-2.36-2.32-2.36-4.49,0-4.6,3.67-7.48,7.76-7.48.69,0,1.39.16,2.01.39.62.2,1.14.43,1.45.43h3.98v1.73Zm-10.84,24.01c1.45,0,3.64-.91,3.64-2.95,0-.98-.45-1.85-1.18-2.28-1.32-.79-3.74-1.89-4.95-2.28-1.39.98-1.9,1.89-1.9,3.82,0,1.42,1.04,3.7,4.4,3.7Zm1.39-15.15c2.49,0,3.53-6.06,3.53-8.11,0-.87-.35-1.85-1.25-1.85-2.63,0-3.74,6.26-3.74,7.95,0,1.06.31,2.01,1.45,2.01Z"/><path class="cls-2" d="m268.29,24.84c-2.01,2.48-4.19,4.64-7.34,4.64-3.53,0-5.33-2.72-5.33-6.53,0-6.3,5.26-12.83,10.88-12.83,1.87,0,3.46,1.14,3.46,3.46,0,4.84-6.03,6.61-9.18,7.28-.17.59-.49,2.24-.49,3.31,0,.98.42,2.56,2.56,2.56,1.87,0,3.46-1.34,4.75-2.75l.69.87Zm-3.15-13.46c-1.97,0-3.91,6.22-4.16,8.03,2.46-.35,5.09-4.01,5.09-6.49,0-1.02-.35-1.53-.94-1.53Z"/><path class="cls-2" d="m272.59,15.35c.24-.94.31-1.65.31-2.09,0-.94-.55-.98-2.22-.98l.24-1.06c1.9,0,5.02-.28,6.75-1.1l.35.47-1.52,5.39.07.08c.97-1.77,2.7-5.94,4.92-5.94,1.42,0,1.97,1.5,1.97,2.95,0,1.81-.55,3.5-2.29,3.5-.62,0-.97-.43-1.28-.87-.28-.43-.52-.94-1-.94-.94,0-2.22,2.6-3.05,6.34l-1.94,7.87h-4.68l3.36-13.62Z"/><rect class="cls-1" y="41.63" width="283.46" height="6.3"/></svg>